<svg xmlns="http://www.w3.org/2000/svg" xmlns:xlink="http://www.w3.org/1999/xlink" width="1080" zoomAndPan="magnify" viewBox="0 0 810 809.999993" height="1080" preserveAspectRatio="xMidYMid meet" version="1.0"><defs><clipPath id="85177105ec"><path d="M 45.054688 3 L 765.054688 3 L 765.054688 807 L 45.054688 807 Z M 45.054688 3 " clip-rule="nonzero"/></clipPath></defs><g clip-path="url(#85177105ec)"><path fill="#848be3" d="M 764.910156 504.46875 C 764.871094 503.652344 764.792969 502.835938 764.714844 502.015625 C 764.636719 500.460938 764.519531 498.867188 764.363281 497.3125 C 764.246094 496.300781 764.128906 495.25 764.015625 494.238281 C 763.820312 492.917969 763.664062 491.59375 763.46875 490.308594 C 763.273438 489.144531 763.082031 487.976562 762.886719 486.847656 C 762.691406 485.722656 762.496094 484.59375 762.261719 483.464844 C 761.992188 482.179688 761.71875 480.9375 761.40625 479.652344 C 761.214844 478.71875 760.980469 477.824219 760.746094 476.890625 C 760.394531 475.492188 760.007812 474.050781 759.617188 472.652344 C 759.421875 471.992188 759.230469 471.328125 759.035156 470.628906 C 758.527344 469.035156 758.023438 467.441406 757.515625 465.886719 C 757.402344 465.574219 757.285156 465.261719 757.167969 464.953125 C 753.042969 453.089844 747.324219 441.886719 740.167969 431.734375 C 740.050781 431.542969 739.933594 431.386719 739.816406 431.230469 C 738.765625 429.714844 737.679688 428.234375 736.550781 426.796875 C 736.277344 426.40625 735.964844 426.058594 735.695312 425.707031 C 734.683594 424.421875 733.671875 423.140625 732.582031 421.894531 C 732.039062 421.273438 731.492188 420.652344 730.949219 420.027344 C 730.09375 419.054688 729.238281 418.082031 728.34375 417.113281 C 725.191406 413.726562 721.84375 410.539062 718.34375 407.503906 C 729.429688 383.351562 735.226562 356.863281 735.226562 330.027344 C 735.226562 249.710938 685.242188 180.753906 614.128906 159.671875 C 614.246094 158.855469 614.285156 158 614.402344 157.183594 C 614.792969 154.65625 615.0625 152.125 615.296875 149.558594 C 615.335938 149.324219 615.375 149.09375 615.375 148.898438 C 615.6875 145.125 615.84375 141.390625 615.84375 137.578125 C 615.84375 60.726562 540.375 3.277344 472.921875 3.277344 C 427.484375 3.277344 396.132812 20.585938 380.183594 32.175781 C 364.234375 20.625 332.878906 3.394531 287.40625 3.277344 C 220.769531 3.941406 145.652344 59.167969 144.445312 137.617188 C 144.445312 150.84375 146.3125 164.066406 149.96875 176.628906 C 151.992188 183.824219 158.683594 188.84375 166.074219 188.84375 C 167.554688 188.84375 169.070312 188.648438 170.589844 188.179688 C 174.945312 187.015625 178.445312 184.175781 180.625 180.128906 C 182.800781 176.28125 183.308594 171.769531 182.140625 167.605469 C 179.457031 157.726562 177.941406 147.691406 177.941406 137.617188 C 177.941406 127.273438 180.078125 116.964844 184.007812 107.085938 C 199.375 104.285156 257.765625 95.925781 267.683594 125.71875 C 270.015625 132.71875 276.550781 137.152344 283.554688 137.152344 C 285.304688 137.152344 287.09375 136.878906 288.84375 136.296875 C 297.636719 133.339844 302.382812 123.890625 299.425781 115.097656 C 287.015625 77.800781 245.898438 68.816406 209.410156 70.253906 C 210.539062 69.164062 211.550781 68.074219 212.757812 67.027344 C 233.996094 48.125 261.808594 36.726562 287.054688 36.726562 L 287.40625 36.726562 C 309.65625 36.726562 330.234375 41.746094 348.480469 51.625 C 355.324219 55.359375 360.382812 58.9375 363.417969 61.464844 L 363.417969 137.152344 C 363.417969 146.371094 370.925781 153.875 380.183594 153.875 C 389.402344 153.875 396.910156 146.371094 396.910156 137.152344 L 396.910156 61.425781 C 406.832031 53.453125 432.464844 36.726562 472.921875 36.726562 C 500.191406 36.726562 529.832031 49.5625 551.382812 70.253906 C 515.011719 68.894531 474.207031 77.957031 461.796875 115.097656 C 458.878906 123.890625 463.585938 133.339844 472.378906 136.296875 C 474.128906 136.878906 475.917969 137.152344 477.667969 137.152344 C 484.707031 137.152344 491.207031 132.71875 493.539062 125.71875 C 502.5625 98.6875 553.679688 102.496094 576.4375 106.855469 C 580.25 116.5 582.347656 126.84375 582.347656 137.578125 C 582.347656 140.261719 582.269531 142.945312 582.039062 145.632812 C 581.960938 147.070312 581.765625 148.46875 581.609375 149.910156 C 581.453125 151.039062 581.375 152.203125 581.21875 153.332031 C 580.949219 155.160156 580.597656 156.949219 580.25 158.738281 C 580.132812 159.4375 580.015625 160.136719 579.859375 160.839844 C 579.429688 162.785156 578.925781 164.726562 578.417969 166.632812 C 574.996094 179.078125 569.394531 190.75 561.613281 201.171875 C 556.089844 208.5625 557.609375 219.0625 565.039062 224.585938 C 568.035156 226.839844 571.535156 227.890625 575.035156 227.890625 C 580.09375 227.890625 585.148438 225.597656 588.457031 221.203125 C 595.148438 212.21875 600.671875 202.378906 604.988281 191.953125 C 661.824219 209.066406 701.773438 264.839844 701.773438 330.027344 C 701.773438 350.371094 697.648438 370.398438 689.910156 388.953125 C 679.015625 383.816406 667.308594 380.277344 655.09375 378.605469 C 651.046875 340.683594 622.183594 311.164062 587.289062 311.164062 C 578.03125 311.164062 570.5625 318.632812 570.5625 327.886719 C 570.5625 337.144531 578.03125 344.613281 587.289062 344.613281 C 606.507812 344.613281 622.144531 363.980469 622.144531 387.746094 C 622.144531 411.550781 606.507812 430.878906 587.289062 430.878906 C 578.03125 430.878906 570.5625 438.386719 570.5625 447.644531 C 570.5625 456.863281 578.03125 464.367188 587.289062 464.367188 C 617.398438 464.367188 642.957031 442.394531 652.058594 412.054688 C 665.207031 414.078125 677.5 419.132812 688.273438 426.5625 C 689.714844 427.535156 691.113281 428.546875 692.515625 429.636719 C 693.097656 430.0625 693.644531 430.570312 694.226562 431.035156 C 696.210938 432.628906 698.117188 434.304688 699.984375 436.054688 C 701.035156 437.101562 702.085938 438.113281 703.09375 439.164062 C 703.875 439.941406 704.613281 440.757812 705.3125 441.535156 C 707.023438 443.480469 708.734375 445.425781 710.292969 447.488281 C 710.449219 447.722656 710.640625 447.953125 710.796875 448.1875 C 712.433594 450.328125 713.910156 452.542969 715.347656 454.839844 C 715.582031 455.148438 715.777344 455.5 716.011719 455.851562 C 719.160156 460.984375 721.882812 466.429688 724.140625 472.148438 C 724.257812 472.339844 724.335938 472.574219 724.414062 472.769531 C 725.503906 475.648438 726.476562 478.523438 727.332031 481.480469 C 727.449219 481.792969 727.523438 482.105469 727.601562 482.414062 C 728.382812 485.175781 729.042969 487.976562 729.585938 490.816406 C 729.625 491.128906 729.703125 491.4375 729.78125 491.710938 C 730.324219 494.667969 730.714844 497.621094 731.027344 500.617188 C 731.105469 501.277344 731.144531 501.902344 731.21875 502.523438 C 731.453125 505.59375 731.648438 508.667969 731.648438 511.78125 C 731.648438 535.699219 723.90625 558.257812 710.253906 576.109375 C 701.773438 540.054688 682.089844 505.050781 646.574219 505.050781 C 637.316406 505.050781 629.808594 512.519531 629.808594 521.777344 C 629.808594 530.992188 637.316406 538.5 646.574219 538.5 C 664.546875 538.5 678.820312 573.699219 681.429688 607.886719 C 681.195312 609.210938 681.078125 610.53125 681.15625 611.933594 C 681.273438 613.292969 681.429688 614.65625 681.582031 616.015625 C 681.699219 616.871094 681.855469 617.765625 681.855469 618.660156 C 681.855469 663.855469 651.164062 701.273438 611.328125 707.765625 C 614.285156 696.292969 615.84375 684.429688 615.84375 672.257812 C 629.925781 657.554688 638.171875 638.535156 639.027344 617.960938 C 639.960938 595.636719 632.140625 574.28125 617.007812 557.832031 C 610.746094 551.023438 600.164062 550.597656 593.359375 556.859375 C 586.550781 563.121094 586.121094 573.699219 592.386719 580.503906 C 601.449219 590.382812 606.15625 603.179688 605.574219 616.597656 C 605.027344 629.980469 599.308594 642.347656 589.429688 651.449219 C 569.042969 670.15625 537.222656 668.835938 518.472656 648.492188 C 512.210938 641.6875 501.628906 641.257812 494.824219 647.519531 C 488.015625 653.78125 487.585938 664.359375 493.851562 671.167969 C 510.304688 689.058594 532.867188 698.121094 555.46875 698.121094 C 563.753906 698.121094 572.039062 696.835938 580.054688 694.386719 C 578.496094 702.011719 576.085938 709.402344 572.855469 716.519531 C 572.703125 716.789062 572.546875 717.023438 572.429688 717.296875 C 556.519531 751.679688 524.816406 772.992188 489.648438 772.992188 C 465.804688 772.992188 443.164062 763.152344 425.851562 745.339844 C 417.800781 737.054688 407.839844 731.296875 396.910156 728.382812 L 396.910156 655.84375 C 396.910156 646.625 389.402344 639.117188 380.183594 639.117188 C 370.925781 639.117188 363.417969 646.625 363.417969 655.84375 L 363.417969 728.417969 C 352.484375 731.414062 342.371094 737.210938 334.398438 745.378906 C 317.203125 763.113281 294.40625 772.992188 270.640625 772.992188 C 235.511719 772.992188 203.886719 751.5625 187.976562 717.257812 C 187.78125 716.789062 187.46875 716.363281 187.238281 715.933594 C 184.707031 709.632812 182.6875 699.054688 181.285156 687.542969 C 191.945312 691.976562 202.914062 694.191406 213.574219 694.191406 C 233.449219 694.191406 252.316406 686.53125 266.476562 671.167969 C 272.742188 664.359375 272.3125 653.78125 265.503906 647.519531 C 258.699219 641.257812 248.117188 641.6875 241.851562 648.492188 C 223.027344 668.949219 193.460938 661.484375 173.933594 643.554688 C 173.660156 643.28125 173.351562 643.125 173.039062 642.890625 C 172.570312 642.503906 172.066406 642.113281 171.558594 641.765625 C 171.132812 641.492188 170.664062 641.257812 170.238281 641.023438 C 169.691406 640.753906 169.1875 640.519531 168.644531 640.285156 C 168.136719 640.089844 167.632812 639.976562 167.085938 639.820312 C 166.582031 639.664062 166.074219 639.507812 165.53125 639.429688 C 164.949219 639.3125 164.324219 639.273438 163.664062 639.234375 C 163.3125 639.195312 162.964844 639.117188 162.613281 639.117188 C 162.496094 639.117188 162.378906 639.15625 162.300781 639.15625 C 161.601562 639.15625 160.941406 639.273438 160.277344 639.351562 C 159.851562 639.429688 159.421875 639.429688 159.035156 639.546875 C 158.375 639.664062 157.789062 639.898438 157.167969 640.089844 C 156.738281 640.246094 156.3125 640.363281 155.921875 640.519531 C 155.378906 640.792969 154.871094 641.101562 154.328125 641.375 C 153.898438 641.648438 153.472656 641.839844 153.082031 642.113281 C 152.65625 642.425781 152.265625 642.773438 151.875 643.125 C 151.410156 643.515625 150.980469 643.863281 150.554688 644.292969 C 150.476562 644.371094 150.359375 644.449219 150.28125 644.523438 C 150.007812 644.796875 149.855469 645.148438 149.621094 645.417969 C 149.230469 645.925781 148.84375 646.390625 148.53125 646.898438 C 148.21875 647.324219 148.027344 647.832031 147.753906 648.296875 C 147.519531 648.765625 147.246094 649.269531 147.054688 649.777344 C 146.859375 650.320312 146.703125 650.863281 146.546875 651.371094 C 146.429688 651.914062 146.273438 652.382812 146.160156 652.925781 C 146.082031 653.511719 146.042969 654.132812 146.003906 654.753906 C 145.964844 655.105469 145.886719 655.492188 145.886719 655.84375 C 145.886719 667.785156 147.015625 689.410156 150.632812 708.234375 C 104.574219 703.839844 79.015625 678.285156 78.511719 635.425781 C 78.511719 626.246094 71.003906 618.699219 61.785156 618.699219 C 52.601562 618.699219 45.054688 626.246094 45.054688 635.425781 C 44.902344 668.054688 57.269531 696.371094 80.027344 715.429688 C 100.957031 733.007812 129.082031 742.382812 161.214844 742.382812 C 161.875 742.382812 162.535156 742.382812 163.195312 742.1875 C 186.304688 782.367188 226.449219 806.441406 270.640625 806.441406 C 303.628906 806.441406 334.941406 793.0625 358.515625 768.636719 C 364.195312 762.761719 371.9375 759.613281 380.105469 759.613281 C 380.144531 759.613281 380.183594 759.574219 380.222656 759.574219 C 388.507812 759.613281 396.171875 762.800781 401.851562 768.636719 C 425.503906 793.023438 456.699219 806.441406 489.648438 806.441406 C 534.074219 806.441406 574.296875 782.171875 597.167969 742.265625 C 597.792969 742.304688 598.453125 742.304688 599.113281 742.304688 C 663.183594 742.304688 715.347656 686.84375 715.347656 618.660156 C 715.347656 618.621094 715.347656 618.582031 715.347656 618.542969 C 746.664062 593.183594 765.101562 553.980469 765.101562 511.78125 C 765.101562 509.328125 765.023438 506.917969 764.910156 504.46875 " fill-opacity="1" fill-rule="nonzero"/></g><path fill="#848be3" d="M 87.070312 270.988281 L 90.414062 270.988281 L 90.414062 374.757812 C 90.414062 422.558594 125.191406 462.269531 170.742188 470.242188 L 170.742188 538.734375 L 167.398438 538.734375 C 158.140625 538.734375 150.671875 546.238281 150.671875 555.457031 C 150.671875 564.714844 158.140625 572.183594 167.398438 572.183594 L 207.582031 572.183594 C 216.800781 572.183594 224.308594 564.714844 224.308594 555.457031 C 224.308594 546.238281 216.800781 538.734375 207.582031 538.734375 L 204.238281 538.734375 L 204.238281 470.242188 C 249.789062 462.269531 284.566406 422.558594 284.566406 374.757812 L 284.566406 270.988281 L 287.910156 270.988281 C 297.132812 270.988281 304.640625 263.519531 304.640625 254.261719 C 304.640625 245.042969 297.132812 237.539062 287.910156 237.539062 L 267.800781 237.539062 C 258.582031 237.539062 251.074219 245.042969 251.074219 254.261719 L 251.074219 374.757812 C 251.074219 404.003906 231.195312 428.664062 204.238281 436.015625 L 204.238281 254.261719 C 204.238281 245.042969 196.730469 237.539062 187.46875 237.539062 C 178.25 237.539062 170.742188 245.042969 170.742188 254.261719 L 170.742188 436.015625 C 143.785156 428.664062 123.90625 404.003906 123.90625 374.757812 L 123.90625 254.261719 C 123.90625 245.042969 116.398438 237.539062 107.140625 237.539062 L 87.070312 237.539062 C 77.808594 237.539062 70.339844 245.042969 70.339844 254.261719 C 70.339844 263.519531 77.808594 270.988281 87.070312 270.988281 " fill-opacity="1" fill-rule="nonzero"/><path fill="#848be3" d="M 380.105469 471.796875 C 380.144531 471.796875 380.144531 471.796875 380.183594 471.796875 C 389.519531 471.757812 396.832031 464.25 396.832031 455.070312 C 396.832031 445.894531 389.519531 438.386719 380.183594 438.347656 C 380.144531 438.347656 380.144531 438.308594 380.105469 438.308594 C 370.886719 438.308594 363.378906 445.855469 363.378906 455.070312 C 363.378906 464.25 370.886719 471.796875 380.105469 471.796875 " fill-opacity="1" fill-rule="nonzero"/><path fill="#848be3" d="M 463.859375 555.457031 C 454.601562 555.457031 447.132812 562.964844 447.132812 572.183594 C 447.132812 581.4375 454.601562 588.90625 463.859375 588.90625 C 500.773438 588.90625 530.804688 558.878906 530.804688 522.007812 C 530.804688 485.097656 500.773438 455.070312 463.859375 455.070312 C 454.601562 455.070312 447.132812 462.539062 447.132812 471.796875 C 447.132812 481.054688 454.601562 488.519531 463.859375 488.519531 C 482.296875 488.519531 497.3125 503.535156 497.3125 522.007812 C 497.3125 540.445312 482.296875 555.457031 463.859375 555.457031 " fill-opacity="1" fill-rule="nonzero"/><path fill="#848be3" d="M 447.132812 354.6875 C 437.871094 354.6875 430.402344 362.152344 430.402344 371.410156 C 430.402344 380.628906 437.871094 388.136719 447.132812 388.136719 C 502.484375 388.136719 547.53125 343.097656 547.53125 287.75 C 547.53125 232.363281 502.484375 187.324219 447.132812 187.324219 C 437.871094 187.324219 430.402344 194.832031 430.402344 204.089844 C 430.402344 213.308594 437.871094 220.8125 447.132812 220.8125 C 484.046875 220.8125 514.039062 250.839844 514.039062 287.75 C 514.039062 324.621094 484.046875 354.6875 447.132812 354.6875 " fill-opacity="1" fill-rule="nonzero"/><path fill="#848be3" d="M 363.378906 572.183594 C 363.378906 581.398438 370.886719 588.90625 380.105469 588.90625 C 380.144531 588.90625 380.144531 588.90625 380.183594 588.90625 C 389.519531 588.867188 396.832031 581.359375 396.832031 572.183594 L 396.832031 522.007812 C 396.832031 512.828125 389.519531 505.285156 380.183594 505.285156 C 380.144531 505.285156 380.144531 505.246094 380.105469 505.246094 C 370.886719 505.246094 363.378906 512.792969 363.378906 522.007812 L 363.378906 572.183594 " fill-opacity="1" fill-rule="nonzero"/><path fill="#848be3" d="M 380.105469 404.859375 C 380.144531 404.859375 380.144531 404.859375 380.183594 404.859375 C 389.519531 404.820312 396.832031 397.316406 396.832031 388.136719 L 396.832031 220.8125 C 396.832031 211.632812 389.519531 204.128906 380.183594 204.089844 C 380.144531 204.089844 380.144531 204.089844 380.105469 204.089844 C 370.886719 204.089844 363.378906 211.59375 363.378906 220.8125 L 363.378906 388.136719 C 363.378906 397.351562 370.886719 404.859375 380.105469 404.859375 " fill-opacity="1" fill-rule="nonzero"/></svg>