<svg width="65" height="39" viewBox="0 0 65 39" fill="none" xmlns="http://www.w3.org/2000/svg">
<path fill-rule="evenodd" clip-rule="evenodd" d="M32.7143 33.8311C29.3098 36.6379 24.8936 38.3322 20.0679 38.3322C9.3003 38.3322 0.571426 29.8963 0.571426 19.49C0.571426 9.08377 9.3003 0.647827 20.0679 0.647827C24.8936 0.647827 29.3098 2.34221 32.7143 5.14897C36.1188 2.34221 40.535 0.647827 45.3606 0.647827C56.1283 0.647827 64.8571 9.08377 64.8571 19.49C64.8571 29.8963 56.1283 38.3322 45.3606 38.3322C40.535 38.3322 36.1188 36.6379 32.7143 33.8311Z" fill="#B7B4B4"/>
<path fill-rule="evenodd" clip-rule="evenodd" d="M32.7143 33.8311C36.9063 30.3751 39.5644 25.2326 39.5644 19.49C39.5644 13.7475 36.9063 8.60498 32.7143 5.14897C36.1188 2.34221 40.535 0.647827 45.3606 0.647827C56.1283 0.647827 64.8571 9.08377 64.8571 19.49C64.8571 29.8963 56.1283 38.3322 45.3606 38.3322C40.535 38.3322 36.1188 36.6379 32.7143 33.8311Z" fill="#D2D2D2"/>
<path fill-rule="evenodd" clip-rule="evenodd" d="M32.7143 33.831C28.5224 30.375 25.8643 25.2325 25.8643 19.49C25.8643 13.7476 28.5224 8.60506 32.7143 5.14905C36.9063 8.60506 39.5644 13.7476 39.5644 19.49C39.5644 25.2325 36.9063 30.375 32.7143 33.831Z" fill="#B7B4B4"/>
</svg>
