<svg width="66" height="57" viewBox="0 0 66 57" fill="none" xmlns="http://www.w3.org/2000/svg">
<g filter="url(#filter0_d_41_70)">
<path fill-rule="evenodd" clip-rule="evenodd" d="M11.2857 33.6012H6.84112C6.53697 33.6012 6.27829 33.8124 6.23086 34.0991L4.43323 44.9876C4.3975 45.2025 4.57167 45.3961 4.79979 45.3961H6.92169C7.22584 45.3961 7.48452 45.185 7.53195 44.8976L8.01679 41.9609C8.06356 41.6733 8.32287 41.4624 8.62639 41.4624H10.0334C12.9612 41.4624 14.6509 40.1088 15.0924 37.4266C15.2912 36.2532 15.1008 35.3312 14.5254 34.6853C13.8939 33.9764 12.7733 33.6012 11.2857 33.6012ZM11.7985 37.5781C11.5555 39.1017 10.3369 39.1017 9.15866 39.1017H8.48795L8.95848 36.2561C8.98642 36.0843 9.14239 35.9575 9.32437 35.9575H9.63177C10.4344 35.9575 11.1916 35.9575 11.5829 36.3946C11.816 36.6555 11.8875 37.0428 11.7985 37.5781ZM24.5718 37.5292H22.4434C22.262 37.5292 22.1053 37.6559 22.0773 37.828L21.9832 38.3966L21.8343 38.1906C21.3736 37.5516 20.3462 37.3381 19.3206 37.3381C16.9685 37.3381 14.9597 39.04 14.5684 41.4273C14.3651 42.618 14.6542 43.7567 15.3612 44.5508C16.01 45.2809 16.9381 45.5852 18.0421 45.5852C19.9372 45.5852 20.9883 44.421 20.9883 44.421L20.8933 44.9861C20.8575 45.2022 21.0316 45.3959 21.2584 45.3959H23.1757C23.4807 45.3959 23.7378 45.1847 23.7859 44.8973L24.9363 37.9378C24.9727 37.7237 24.7992 37.5292 24.5718 37.5292ZM21.6049 41.4868C21.3994 42.6485 20.4343 43.4283 19.2036 43.4283C18.5856 43.4283 18.0915 43.2389 17.7745 42.88C17.4599 42.5238 17.3402 42.0164 17.4403 41.4515C17.6322 40.2996 18.6136 39.4945 19.8256 39.4945C20.4298 39.4945 20.9212 39.6861 21.2449 40.0482C21.5691 40.4139 21.6978 40.9242 21.6049 41.4868ZM33.7685 37.5289H35.9074C36.207 37.5289 36.3817 37.8499 36.2115 38.0846L29.0978 47.8944C28.9826 48.0533 28.7928 48.1478 28.5901 48.1478H26.4539C26.1531 48.1478 25.9775 47.8243 26.1516 47.589L28.3667 44.602L26.0109 37.997C25.9294 37.7674 26.1068 37.5289 26.3625 37.5289H28.4641C28.7372 37.5289 28.9781 37.7002 29.0569 37.9498L30.3071 41.9391L33.2572 37.7878C33.3727 37.6257 33.5646 37.5289 33.7685 37.5289Z" fill="#B7B4B4"/>
<path fill-rule="evenodd" clip-rule="evenodd" d="M56.9584 44.9875L58.7825 33.9C58.8105 33.7279 58.9666 33.6012 59.1479 33.6006H61.2015C61.4282 33.6006 61.6024 33.7948 61.5666 34.0097L59.7678 44.8976C59.7208 45.1849 59.4622 45.3961 59.1575 45.3961H57.3236C57.0968 45.3961 56.9226 45.2025 56.9584 44.9875ZM42.9888 33.6012H38.5434C38.2399 33.6012 37.9812 33.8123 37.9337 34.0991L36.1361 44.9875C36.1003 45.2025 36.2745 45.3961 36.5015 45.3961H38.7825C38.9945 45.3961 39.1758 45.2484 39.2089 45.0473L39.719 41.9609C39.7659 41.6733 40.0252 41.4624 40.3286 41.4624H41.7349C44.6634 41.4624 46.3527 40.1088 46.7945 37.4266C46.9939 36.2532 46.8023 35.3311 46.2273 34.6852C45.596 33.9764 44.4763 33.6012 42.9888 33.6012ZM43.5016 37.578C43.2592 39.1017 42.0405 39.1017 40.8616 39.1017H40.1915L40.6628 36.256C40.6907 36.0842 40.8453 35.9575 41.0279 35.9575H41.3352C42.1373 35.9575 42.8952 35.9575 43.2862 36.3945C43.5196 36.6554 43.5906 37.0427 43.5016 37.578ZM56.2736 37.5292H54.1467C53.9638 37.5292 53.8087 37.6559 53.7813 37.828L53.6871 38.3966L53.5377 38.1906C53.0769 37.5516 52.0502 37.3381 51.0246 37.3381C48.6724 37.3381 46.6643 39.0399 46.273 41.4273C46.0703 42.618 46.3581 43.7566 47.0652 44.5508C47.7151 45.2809 48.642 45.5852 49.7461 45.5852C51.6411 45.5852 52.692 44.4209 52.692 44.4209L52.5972 44.9861C52.5614 45.2022 52.7356 45.3958 52.9638 45.3958H54.8802C55.1837 45.3958 55.4423 45.1846 55.4899 44.8973L56.6408 37.9377C56.676 37.7237 56.5019 37.5292 56.2736 37.5292ZM53.307 41.4868C53.1028 42.6484 52.1365 43.4282 50.9055 43.4282C50.2886 43.4282 49.7936 43.2389 49.4763 42.88C49.1617 42.5237 49.0435 42.0163 49.1425 41.4514C49.3353 40.2996 50.3154 39.4945 51.5274 39.4945C52.132 39.4945 52.6231 39.6861 52.947 40.0481C53.2724 40.4139 53.4011 40.9242 53.307 41.4868Z" fill="#B7B4B4"/>
<path d="M27.7343 29.706L28.2808 26.3902L27.0636 26.3632H21.2516L25.2907 1.89579C25.303 1.82192 25.3439 1.75305 25.4035 1.70415C25.463 1.65525 25.5394 1.6283 25.6188 1.6283H35.4189C38.6724 1.6283 40.9175 2.27509 42.0898 3.5517C42.6393 4.1506 42.9894 4.77642 43.1587 5.46514C43.3362 6.18782 43.3395 7.0512 43.1659 8.10424L43.1533 8.1811V8.85582L43.7031 9.15329C44.1659 9.38783 44.5335 9.65634 44.8156 9.96377C45.2859 10.4758 45.59 11.1266 45.7184 11.8982C45.8511 12.6917 45.8072 13.6359 45.59 14.7049C45.3392 15.9347 44.9338 17.0057 44.3864 17.882C43.8826 18.6895 43.2411 19.3591 42.4796 19.8783C41.7524 20.3714 40.8883 20.7458 39.9115 20.9854C38.9647 21.2207 37.8856 21.3397 36.7019 21.3397H35.9392C35.3939 21.3397 34.864 21.5273 34.4483 21.8637C34.0315 22.2071 33.7554 22.676 33.6709 23.1892L33.6134 23.4877L32.648 29.3316L32.6041 29.5462C32.5927 29.6143 32.5728 29.6482 32.5437 29.6712C32.5175 29.6919 32.4799 29.706 32.4432 29.706H27.7343Z" fill="#B7B4B4"/>
<path d="M44.2234 8.25928C44.1942 8.43794 44.1608 8.62059 44.1233 8.80824C42.8306 15.1474 38.4093 17.3374 32.762 17.3374H29.8868C29.1963 17.3374 28.6143 17.8165 28.5067 18.4672L27.0345 27.3867L26.6176 29.9149C26.5476 30.3422 26.8925 30.7275 27.3437 30.7275H32.4435C33.0474 30.7275 33.5602 30.3083 33.6553 29.7393L33.7055 29.4917L34.6658 23.6705L34.7274 23.3513C34.8213 22.7804 35.3353 22.3611 35.9392 22.3611H36.7019C41.6426 22.3611 45.5106 20.4447 46.6412 14.8989C47.1133 12.5822 46.8688 10.6478 45.6192 9.28735C45.2411 8.87711 44.772 8.53675 44.2234 8.25928Z" fill="#D2D2D2"/>
<path d="M42.8709 7.74456C42.6736 7.68965 42.4697 7.63974 42.2607 7.59484C42.0508 7.55093 41.8354 7.512 41.6141 7.47807C40.8387 7.35828 39.9894 7.30139 39.0793 7.30139H31.3981C31.2089 7.30139 31.0294 7.34231 30.8685 7.41618C30.5142 7.57886 30.251 7.89929 30.1873 8.29154L28.553 18.1791L28.5061 18.4676C28.6137 17.8168 29.1957 17.3377 29.8862 17.3377H32.7614C38.4086 17.3377 42.8303 15.1468 44.1227 8.80858C44.1611 8.62093 44.1936 8.43828 44.2228 8.25962C43.8959 8.09392 43.5416 7.95218 43.1602 7.83139C43.0664 7.80145 42.9693 7.77252 42.8709 7.74456Z" fill="#B7B4B4"/>
<path d="M30.1873 8.29138C30.2511 7.89909 30.5146 7.5787 30.8685 7.41699C31.0306 7.34312 31.2093 7.30221 31.3982 7.30221H39.0797C39.9898 7.30221 40.8391 7.3591 41.6141 7.47888C41.8358 7.51282 42.0511 7.55175 42.261 7.59565C42.4701 7.64059 42.6737 7.6905 42.8713 7.74538C42.9693 7.77333 43.0665 7.80227 43.1615 7.83123C43.5429 7.95199 43.8971 8.09473 44.2241 8.25943C44.6087 5.91679 44.2211 4.32176 42.8953 2.87744C41.4337 1.28742 38.7955 0.606689 35.4198 0.606689H25.6195C24.9299 0.606689 24.3419 1.08577 24.2351 1.73757L20.1533 26.4565C20.0727 26.9456 20.4676 27.3869 20.9837 27.3869H27.0342L28.5533 18.179L30.1873 8.29138Z" fill="#B7B4B4"/>
</g>
<defs>
<filter id="filter0_d_41_70" x="0.428572" y="0.606689" width="65.1427" height="55.5411" filterUnits="userSpaceOnUse" color-interpolation-filters="sRGB">
<feFlood flood-opacity="0" result="BackgroundImageFix"/>
<feColorMatrix in="SourceAlpha" type="matrix" values="0 0 0 0 0 0 0 0 0 0 0 0 0 0 0 0 0 0 127 0" result="hardAlpha"/>
<feOffset dy="4"/>
<feGaussianBlur stdDeviation="2"/>
<feComposite in2="hardAlpha" operator="out"/>
<feColorMatrix type="matrix" values="0 0 0 0 0 0 0 0 0 0 0 0 0 0 0 0 0 0 0.25 0"/>
<feBlend mode="normal" in2="BackgroundImageFix" result="effect1_dropShadow_41_70"/>
<feBlend mode="normal" in="SourceGraphic" in2="effect1_dropShadow_41_70" result="shape"/>
</filter>
</defs>
</svg>
