<svg xmlns="http://www.w3.org/2000/svg" xmlns:xlink="http://www.w3.org/1999/xlink" width="295" zoomAndPan="magnify" viewBox="0 0 221.25 44.999999" height="60" preserveAspectRatio="xMidYMid meet" version="1.0"><defs><g/><clipPath id="f1f53b083a"><path d="M 73.824219 14.59375 L 88.027344 14.59375 L 88.027344 30.292969 L 73.824219 30.292969 Z M 73.824219 14.59375 " clip-rule="nonzero"/></clipPath></defs><g clip-path="url(#f1f53b083a)"><path fill="#848be3" d="M 88.023438 24.371094 C 88.023438 24.355469 88.019531 24.339844 88.019531 24.324219 C 88.019531 24.292969 88.015625 24.261719 88.011719 24.234375 C 88.011719 24.210938 88.007812 24.191406 88.003906 24.171875 C 88 24.148438 88 24.121094 87.996094 24.097656 C 87.992188 24.074219 87.988281 24.050781 87.984375 24.03125 C 87.980469 24.007812 87.976562 23.984375 87.972656 23.964844 C 87.964844 23.9375 87.960938 23.914062 87.953125 23.890625 C 87.949219 23.871094 87.945312 23.855469 87.941406 23.835938 C 87.933594 23.808594 87.925781 23.78125 87.917969 23.753906 C 87.914062 23.742188 87.910156 23.730469 87.90625 23.714844 C 87.898438 23.683594 87.886719 23.652344 87.878906 23.625 C 87.875 23.617188 87.871094 23.609375 87.871094 23.605469 C 87.789062 23.375 87.675781 23.15625 87.535156 22.960938 C 87.53125 22.957031 87.53125 22.953125 87.527344 22.953125 C 87.507812 22.921875 87.484375 22.894531 87.464844 22.867188 C 87.457031 22.859375 87.453125 22.851562 87.445312 22.84375 C 87.425781 22.820312 87.40625 22.792969 87.386719 22.769531 C 87.375 22.757812 87.363281 22.746094 87.351562 22.734375 C 87.335938 22.714844 87.320312 22.695312 87.300781 22.675781 C 87.238281 22.613281 87.171875 22.550781 87.105469 22.492188 C 87.324219 22.023438 87.4375 21.507812 87.4375 20.988281 C 87.4375 19.433594 86.453125 18.09375 85.050781 17.6875 C 85.050781 17.671875 85.050781 17.652344 85.054688 17.636719 C 85.0625 17.589844 85.066406 17.539062 85.070312 17.492188 C 85.074219 17.484375 85.074219 17.480469 85.074219 17.476562 C 85.078125 17.40625 85.082031 17.332031 85.082031 17.257812 C 85.082031 15.769531 83.59375 14.65625 82.265625 14.65625 C 81.367188 14.65625 80.75 14.988281 80.433594 15.214844 C 80.121094 14.992188 79.5 14.65625 78.605469 14.65625 C 77.289062 14.667969 75.808594 15.738281 75.785156 17.257812 C 75.785156 17.515625 75.820312 17.773438 75.894531 18.015625 C 75.933594 18.15625 76.066406 18.253906 76.210938 18.253906 C 76.242188 18.253906 76.269531 18.25 76.300781 18.238281 C 76.386719 18.214844 76.457031 18.160156 76.5 18.082031 C 76.542969 18.007812 76.550781 17.921875 76.527344 17.839844 C 76.476562 17.648438 76.445312 17.453125 76.445312 17.257812 C 76.445312 17.058594 76.488281 16.859375 76.566406 16.667969 C 76.867188 16.613281 78.019531 16.449219 78.214844 17.027344 C 78.261719 17.164062 78.390625 17.25 78.527344 17.25 C 78.5625 17.25 78.597656 17.246094 78.632812 17.234375 C 78.804688 17.175781 78.898438 16.992188 78.839844 16.824219 C 78.597656 16.097656 77.785156 15.925781 77.066406 15.953125 C 77.089844 15.933594 77.109375 15.910156 77.132812 15.890625 C 77.550781 15.523438 78.101562 15.304688 78.597656 15.304688 L 78.605469 15.304688 C 79.042969 15.304688 79.449219 15.398438 79.808594 15.59375 C 79.945312 15.664062 80.042969 15.734375 80.105469 15.78125 L 80.105469 17.25 C 80.105469 17.429688 80.25 17.574219 80.433594 17.574219 C 80.617188 17.574219 80.765625 17.429688 80.765625 17.25 L 80.765625 15.78125 C 80.960938 15.628906 81.464844 15.304688 82.265625 15.304688 C 82.800781 15.304688 83.386719 15.550781 83.8125 15.953125 C 83.09375 15.925781 82.289062 16.101562 82.042969 16.824219 C 81.988281 16.992188 82.078125 17.175781 82.253906 17.234375 C 82.289062 17.246094 82.324219 17.25 82.355469 17.25 C 82.496094 17.25 82.625 17.164062 82.671875 17.027344 C 82.847656 16.503906 83.855469 16.578125 84.304688 16.664062 C 84.378906 16.847656 84.421875 17.050781 84.421875 17.257812 C 84.421875 17.308594 84.421875 17.363281 84.417969 17.414062 C 84.414062 17.441406 84.410156 17.46875 84.40625 17.496094 C 84.40625 17.519531 84.402344 17.542969 84.398438 17.5625 C 84.394531 17.597656 84.386719 17.632812 84.378906 17.667969 C 84.378906 17.683594 84.375 17.695312 84.375 17.710938 C 84.363281 17.746094 84.355469 17.785156 84.34375 17.820312 C 84.277344 18.0625 84.167969 18.289062 84.011719 18.492188 C 83.902344 18.632812 83.933594 18.839844 84.082031 18.945312 C 84.140625 18.988281 84.207031 19.007812 84.277344 19.007812 C 84.378906 19.007812 84.476562 18.964844 84.542969 18.878906 C 84.675781 18.707031 84.785156 18.515625 84.867188 18.3125 C 85.988281 18.644531 86.777344 19.726562 86.777344 20.988281 C 86.777344 21.382812 86.695312 21.773438 86.542969 22.132812 C 86.328125 22.03125 86.097656 21.964844 85.855469 21.929688 C 85.777344 21.195312 85.207031 20.625 84.519531 20.625 C 84.335938 20.625 84.191406 20.769531 84.191406 20.949219 C 84.191406 21.128906 84.335938 21.273438 84.519531 21.273438 C 84.898438 21.273438 85.207031 21.648438 85.207031 22.109375 C 85.207031 22.570312 84.898438 22.945312 84.519531 22.945312 C 84.335938 22.945312 84.191406 23.089844 84.191406 23.269531 C 84.191406 23.449219 84.335938 23.59375 84.519531 23.59375 C 85.113281 23.59375 85.617188 23.167969 85.796875 22.578125 C 86.054688 22.617188 86.300781 22.71875 86.511719 22.859375 C 86.539062 22.878906 86.566406 22.898438 86.59375 22.921875 C 86.605469 22.929688 86.617188 22.9375 86.628906 22.949219 C 86.667969 22.976562 86.707031 23.011719 86.742188 23.042969 C 86.761719 23.066406 86.785156 23.085938 86.804688 23.105469 C 86.820312 23.121094 86.832031 23.136719 86.847656 23.152344 C 86.882812 23.1875 86.914062 23.226562 86.945312 23.265625 C 86.949219 23.269531 86.953125 23.277344 86.957031 23.28125 C 86.988281 23.320312 87.015625 23.363281 87.046875 23.410156 C 87.050781 23.414062 87.054688 23.421875 87.058594 23.429688 C 87.121094 23.527344 87.175781 23.632812 87.21875 23.746094 C 87.222656 23.75 87.222656 23.753906 87.222656 23.757812 C 87.246094 23.8125 87.265625 23.867188 87.28125 23.925781 C 87.285156 23.929688 87.285156 23.9375 87.289062 23.945312 C 87.300781 23.996094 87.316406 24.050781 87.328125 24.105469 C 87.328125 24.113281 87.328125 24.117188 87.332031 24.125 C 87.339844 24.179688 87.347656 24.238281 87.355469 24.296875 C 87.355469 24.308594 87.355469 24.320312 87.359375 24.332031 C 87.363281 24.394531 87.367188 24.453125 87.367188 24.511719 C 87.367188 24.976562 87.214844 25.414062 86.945312 25.761719 C 86.777344 25.0625 86.390625 24.382812 85.6875 24.382812 C 85.507812 24.382812 85.359375 24.527344 85.359375 24.707031 C 85.359375 24.886719 85.507812 25.03125 85.6875 25.03125 C 86.042969 25.03125 86.324219 25.714844 86.375 26.375 C 86.371094 26.402344 86.371094 26.425781 86.371094 26.453125 C 86.375 26.480469 86.375 26.507812 86.378906 26.535156 C 86.382812 26.550781 86.386719 26.566406 86.386719 26.585938 C 86.386719 27.460938 85.78125 28.1875 84.992188 28.3125 C 85.050781 28.089844 85.082031 27.859375 85.082031 27.625 C 85.359375 27.339844 85.523438 26.96875 85.539062 26.570312 C 85.558594 26.140625 85.40625 25.726562 85.105469 25.40625 C 84.980469 25.273438 84.773438 25.265625 84.640625 25.386719 C 84.503906 25.507812 84.496094 25.714844 84.621094 25.84375 C 84.800781 26.035156 84.890625 26.285156 84.878906 26.546875 C 84.871094 26.804688 84.757812 27.042969 84.5625 27.222656 C 84.160156 27.582031 83.53125 27.558594 83.164062 27.164062 C 83.039062 27.03125 82.828125 27.023438 82.695312 27.144531 C 82.5625 27.265625 82.554688 27.472656 82.675781 27.601562 C 83 27.949219 83.445312 28.125 83.890625 28.125 C 84.054688 28.125 84.21875 28.101562 84.375 28.054688 C 84.347656 28.199219 84.296875 28.34375 84.234375 28.480469 C 84.230469 28.488281 84.230469 28.492188 84.226562 28.496094 C 83.914062 29.164062 83.289062 29.578125 82.59375 29.578125 C 82.125 29.578125 81.675781 29.386719 81.335938 29.042969 C 81.175781 28.878906 80.980469 28.769531 80.765625 28.710938 L 80.765625 27.304688 C 80.765625 27.128906 80.617188 26.980469 80.433594 26.980469 C 80.25 26.980469 80.105469 27.128906 80.105469 27.304688 L 80.105469 28.714844 C 79.886719 28.769531 79.6875 28.882812 79.53125 29.042969 C 79.191406 29.386719 78.742188 29.578125 78.273438 29.578125 C 77.582031 29.578125 76.957031 29.160156 76.644531 28.496094 C 76.640625 28.488281 76.632812 28.480469 76.628906 28.472656 C 76.578125 28.347656 76.539062 28.144531 76.511719 27.921875 C 76.722656 28.007812 76.9375 28.050781 77.148438 28.050781 C 77.539062 28.050781 77.914062 27.902344 78.191406 27.601562 C 78.316406 27.472656 78.308594 27.265625 78.171875 27.144531 C 78.039062 27.023438 77.828125 27.03125 77.707031 27.164062 C 77.335938 27.558594 76.75 27.414062 76.367188 27.066406 C 76.359375 27.0625 76.355469 27.058594 76.347656 27.054688 C 76.339844 27.046875 76.328125 27.039062 76.320312 27.03125 C 76.3125 27.027344 76.300781 27.023438 76.292969 27.019531 C 76.28125 27.011719 76.273438 27.007812 76.261719 27.003906 C 76.253906 27 76.242188 27 76.230469 26.996094 C 76.222656 26.992188 76.210938 26.988281 76.199219 26.988281 C 76.1875 26.984375 76.175781 26.984375 76.164062 26.984375 C 76.15625 26.984375 76.148438 26.980469 76.144531 26.980469 C 76.140625 26.980469 76.136719 26.984375 76.136719 26.984375 C 76.121094 26.984375 76.109375 26.984375 76.097656 26.984375 C 76.089844 26.988281 76.078125 26.988281 76.074219 26.988281 C 76.058594 26.992188 76.046875 26.996094 76.035156 27 C 76.027344 27.003906 76.019531 27.007812 76.011719 27.007812 C 76 27.015625 75.992188 27.019531 75.980469 27.027344 C 75.972656 27.03125 75.960938 27.035156 75.953125 27.039062 C 75.945312 27.046875 75.9375 27.050781 75.929688 27.058594 C 75.921875 27.066406 75.914062 27.074219 75.90625 27.082031 C 75.902344 27.082031 75.902344 27.085938 75.898438 27.085938 C 75.894531 27.09375 75.890625 27.097656 75.886719 27.105469 C 75.878906 27.113281 75.871094 27.121094 75.863281 27.132812 C 75.859375 27.140625 75.855469 27.152344 75.851562 27.160156 C 75.84375 27.167969 75.839844 27.179688 75.835938 27.1875 C 75.832031 27.199219 75.828125 27.210938 75.824219 27.21875 C 75.824219 27.230469 75.820312 27.238281 75.820312 27.25 C 75.816406 27.261719 75.816406 27.273438 75.816406 27.285156 C 75.816406 27.292969 75.8125 27.300781 75.8125 27.304688 C 75.8125 27.539062 75.835938 27.957031 75.90625 28.320312 C 75 28.238281 74.492188 27.742188 74.484375 26.910156 C 74.484375 26.730469 74.335938 26.585938 74.152344 26.585938 C 73.972656 26.585938 73.824219 26.730469 73.824219 26.910156 C 73.820312 27.542969 74.066406 28.089844 74.515625 28.460938 C 74.925781 28.800781 75.480469 28.984375 76.117188 28.984375 C 76.128906 28.984375 76.140625 28.984375 76.15625 28.980469 C 76.609375 29.757812 77.402344 30.226562 78.273438 30.226562 C 78.925781 30.226562 79.542969 29.964844 80.007812 29.492188 C 80.121094 29.378906 80.273438 29.316406 80.433594 29.316406 C 80.597656 29.316406 80.75 29.378906 80.863281 29.492188 C 81.328125 29.964844 81.945312 30.226562 82.59375 30.226562 C 83.46875 30.226562 84.261719 29.753906 84.714844 28.980469 C 84.726562 28.980469 84.738281 28.980469 84.753906 28.980469 C 86.015625 28.980469 87.046875 27.90625 87.046875 26.585938 C 87.046875 26.585938 87.046875 26.582031 87.046875 26.582031 C 87.664062 26.089844 88.027344 25.332031 88.027344 24.511719 C 88.027344 24.464844 88.027344 24.417969 88.023438 24.371094 " fill-opacity="1" fill-rule="nonzero"/></g><path fill="#848be3" d="M 74.652344 19.84375 L 74.71875 19.84375 L 74.71875 21.855469 C 74.71875 22.78125 75.40625 23.554688 76.304688 23.707031 L 76.304688 25.035156 L 76.238281 25.035156 C 76.054688 25.035156 75.90625 25.179688 75.90625 25.359375 C 75.90625 25.539062 76.054688 25.683594 76.238281 25.683594 L 77.03125 25.683594 C 77.210938 25.683594 77.359375 25.539062 77.359375 25.359375 C 77.359375 25.179688 77.210938 25.035156 77.03125 25.035156 L 76.964844 25.035156 L 76.964844 23.707031 C 77.863281 23.554688 78.546875 22.78125 78.546875 21.855469 L 78.546875 19.84375 L 78.613281 19.84375 C 78.796875 19.84375 78.945312 19.699219 78.945312 19.519531 C 78.945312 19.339844 78.796875 19.195312 78.613281 19.195312 L 78.21875 19.195312 C 78.035156 19.195312 77.886719 19.339844 77.886719 19.519531 L 77.886719 21.855469 C 77.886719 22.421875 77.496094 22.902344 76.964844 23.042969 L 76.964844 19.519531 C 76.964844 19.339844 76.816406 19.195312 76.632812 19.195312 C 76.453125 19.195312 76.304688 19.339844 76.304688 19.519531 L 76.304688 23.042969 C 75.773438 22.902344 75.378906 22.421875 75.378906 21.855469 L 75.378906 19.519531 C 75.378906 19.339844 75.230469 19.195312 75.046875 19.195312 L 74.652344 19.195312 C 74.46875 19.195312 74.324219 19.339844 74.324219 19.519531 C 74.324219 19.699219 74.46875 19.84375 74.652344 19.84375 " fill-opacity="1" fill-rule="nonzero"/><path fill="#848be3" d="M 80.433594 23.738281 C 80.617188 23.738281 80.761719 23.589844 80.761719 23.414062 C 80.761719 23.234375 80.617188 23.089844 80.433594 23.089844 C 80.25 23.089844 80.101562 23.234375 80.101562 23.414062 C 80.101562 23.589844 80.25 23.738281 80.433594 23.738281 " fill-opacity="1" fill-rule="nonzero"/><path fill="#848be3" d="M 82.085938 25.359375 C 81.902344 25.359375 81.753906 25.503906 81.753906 25.683594 C 81.753906 25.863281 81.902344 26.007812 82.085938 26.007812 C 82.8125 26.007812 83.40625 25.425781 83.40625 24.710938 C 83.40625 23.996094 82.8125 23.414062 82.085938 23.414062 C 81.902344 23.414062 81.753906 23.558594 81.753906 23.738281 C 81.753906 23.917969 81.902344 24.0625 82.085938 24.0625 C 82.449219 24.0625 82.746094 24.351562 82.746094 24.710938 C 82.746094 25.070312 82.449219 25.359375 82.085938 25.359375 " fill-opacity="1" fill-rule="nonzero"/><path fill="#848be3" d="M 81.753906 21.46875 C 81.574219 21.46875 81.425781 21.613281 81.425781 21.792969 C 81.425781 21.96875 81.574219 22.117188 81.753906 22.117188 C 82.847656 22.117188 83.734375 21.242188 83.734375 20.167969 C 83.734375 19.097656 82.847656 18.222656 81.753906 18.222656 C 81.574219 18.222656 81.425781 18.367188 81.425781 18.546875 C 81.425781 18.726562 81.574219 18.871094 81.753906 18.871094 C 82.484375 18.871094 83.074219 19.453125 83.074219 20.167969 C 83.074219 20.882812 82.484375 21.46875 81.753906 21.46875 " fill-opacity="1" fill-rule="nonzero"/><path fill="#848be3" d="M 80.101562 25.683594 C 80.101562 25.863281 80.25 26.007812 80.433594 26.007812 C 80.617188 26.007812 80.761719 25.863281 80.761719 25.683594 L 80.761719 24.710938 C 80.761719 24.535156 80.617188 24.386719 80.433594 24.386719 C 80.25 24.386719 80.101562 24.53125 80.101562 24.710938 L 80.101562 25.683594 " fill-opacity="1" fill-rule="nonzero"/><path fill="#848be3" d="M 80.433594 22.441406 C 80.617188 22.4375 80.761719 22.292969 80.761719 22.117188 L 80.761719 18.871094 C 80.761719 18.695312 80.617188 18.546875 80.433594 18.546875 C 80.25 18.546875 80.101562 18.691406 80.101562 18.871094 L 80.101562 22.117188 C 80.101562 22.292969 80.25 22.441406 80.433594 22.441406 " fill-opacity="1" fill-rule="nonzero"/><g fill="#848be3" fill-opacity="1"><g transform="translate(92.805007, 39.715452)"><g><path d="M 2.40625 -17.5625 C 2.40625 -21.007812 3.15625 -24.097656 4.65625 -26.828125 C 6.164062 -29.554688 8.222656 -31.679688 10.828125 -33.203125 C 13.441406 -34.722656 16.359375 -35.484375 19.578125 -35.484375 C 23.484375 -35.484375 26.832031 -34.550781 29.625 -32.6875 C 32.425781 -30.832031 34.460938 -28.21875 35.734375 -24.84375 L 31.625 -24.84375 C 30.613281 -27.21875 29.078125 -29.070312 27.015625 -30.40625 C 24.960938 -31.75 22.484375 -32.421875 19.578125 -32.421875 C 16.992188 -32.421875 14.671875 -31.816406 12.609375 -30.609375 C 10.554688 -29.410156 8.941406 -27.679688 7.765625 -25.421875 C 6.597656 -23.160156 6.015625 -20.539062 6.015625 -17.5625 C 6.015625 -14.582031 6.597656 -11.972656 7.765625 -9.734375 C 8.941406 -7.492188 10.554688 -5.769531 12.609375 -4.5625 C 14.671875 -3.363281 16.992188 -2.765625 19.578125 -2.765625 C 22.484375 -2.765625 24.960938 -3.421875 27.015625 -4.734375 C 29.078125 -6.054688 30.613281 -7.890625 31.625 -10.234375 L 35.734375 -10.234375 C 34.460938 -6.890625 32.421875 -4.296875 29.609375 -2.453125 C 26.796875 -0.617188 23.453125 0.296875 19.578125 0.296875 C 16.359375 0.296875 13.441406 -0.460938 10.828125 -1.984375 C 8.222656 -3.503906 6.164062 -5.617188 4.65625 -8.328125 C 3.15625 -11.035156 2.40625 -14.113281 2.40625 -17.5625 Z M 2.40625 -17.5625 "/></g></g></g><g fill="#848be3" fill-opacity="1"><g transform="translate(131.497878, 39.715452)"><g><path d="M 24.34375 -8.328125 L 8.375 -8.328125 L 5.3125 0 L 1.609375 0 L 14.40625 -34.625 L 18.375 -34.625 L 31.109375 0 L 27.40625 0 Z M 23.28125 -11.234375 L 16.359375 -30.21875 L 9.4375 -11.234375 Z M 23.28125 -11.234375 "/></g></g></g><g fill="#848be3" fill-opacity="1"><g transform="translate(164.218708, 39.715452)"><g><path d="M 22.6875 0 L 14 -14.65625 L 7.53125 -14.65625 L 7.53125 0 L 4.015625 0 L 4.015625 -35.078125 L 14.546875 -35.078125 C 18.460938 -35.078125 21.429688 -34.140625 23.453125 -32.265625 C 25.484375 -30.390625 26.5 -27.929688 26.5 -24.890625 C 26.5 -22.347656 25.769531 -20.179688 24.3125 -18.390625 C 22.851562 -16.597656 20.703125 -15.4375 17.859375 -14.90625 L 26.90625 0 Z M 7.53125 -17.515625 L 14.609375 -17.515625 C 17.347656 -17.515625 19.410156 -18.179688 20.796875 -19.515625 C 22.191406 -20.859375 22.890625 -22.648438 22.890625 -24.890625 C 22.890625 -27.203125 22.21875 -28.984375 20.875 -30.234375 C 19.539062 -31.492188 17.429688 -32.125 14.546875 -32.125 L 7.53125 -32.125 Z M 7.53125 -17.515625 "/></g></g></g><g fill="#848be3" fill-opacity="1"><g transform="translate(193.677482, 39.715452)"><g><path d="M 7.53125 -32.21875 L 7.53125 -19.125 L 20.828125 -19.125 L 20.828125 -16.203125 L 7.53125 -16.203125 L 7.53125 -2.90625 L 22.328125 -2.90625 L 22.328125 0 L 4.015625 0 L 4.015625 -35.125 L 22.328125 -35.125 L 22.328125 -32.21875 Z M 7.53125 -32.21875 "/></g></g></g><g fill="#848be3" fill-opacity="1"><g transform="translate(0.990291, 39.825892)"><g><path d="M 26.453125 -25 C 26.453125 -21.976562 25.460938 -19.546875 23.484375 -17.703125 C 21.515625 -15.867188 18.554688 -14.953125 14.609375 -14.953125 L 7.53125 -14.953125 L 7.53125 0 L 4.015625 0 L 4.015625 -35.078125 L 14.609375 -35.078125 C 18.515625 -35.078125 21.460938 -34.15625 23.453125 -32.3125 C 25.453125 -30.476562 26.453125 -28.039062 26.453125 -25 Z M 14.609375 -17.96875 C 20.085938 -17.96875 22.828125 -20.3125 22.828125 -25 C 22.828125 -27.332031 22.175781 -29.101562 20.875 -30.3125 C 19.570312 -31.519531 17.484375 -32.125 14.609375 -32.125 L 7.53125 -32.125 L 7.53125 -17.96875 Z M 14.609375 -17.96875 "/></g></g></g><g fill="#848be3" fill-opacity="1"><g transform="translate(29.294812, 39.825892)"><g><path d="M 14.65625 0.34375 C 12.34375 0.34375 10.304688 -0.0546875 8.546875 -0.859375 C 6.796875 -1.660156 5.414062 -2.78125 4.40625 -4.21875 C 3.40625 -5.65625 2.875 -7.257812 2.8125 -9.03125 L 6.53125 -9.03125 C 6.695312 -7.320312 7.445312 -5.820312 8.78125 -4.53125 C 10.125 -3.25 12.082031 -2.609375 14.65625 -2.609375 C 17.03125 -2.609375 18.910156 -3.21875 20.296875 -4.4375 C 21.691406 -5.664062 22.390625 -7.210938 22.390625 -9.078125 C 22.390625 -10.585938 22.003906 -11.800781 21.234375 -12.71875 C 20.460938 -13.644531 19.503906 -14.332031 18.359375 -14.78125 C 17.222656 -15.226562 15.65625 -15.722656 13.65625 -16.265625 C 11.3125 -16.898438 9.453125 -17.515625 8.078125 -18.109375 C 6.703125 -18.710938 5.53125 -19.648438 4.5625 -20.921875 C 3.59375 -22.191406 3.109375 -23.914062 3.109375 -26.09375 C 3.109375 -27.90625 3.578125 -29.519531 4.515625 -30.9375 C 5.453125 -32.363281 6.773438 -33.476562 8.484375 -34.28125 C 10.191406 -35.082031 12.148438 -35.484375 14.359375 -35.484375 C 17.597656 -35.484375 20.210938 -34.6875 22.203125 -33.09375 C 24.191406 -31.507812 25.335938 -29.460938 25.640625 -26.953125 L 21.828125 -26.953125 C 21.597656 -28.390625 20.8125 -29.664062 19.46875 -30.78125 C 18.132812 -31.90625 16.328125 -32.46875 14.046875 -32.46875 C 11.941406 -32.46875 10.1875 -31.90625 8.78125 -30.78125 C 7.375 -29.664062 6.671875 -28.140625 6.671875 -26.203125 C 6.671875 -24.722656 7.054688 -23.53125 7.828125 -22.625 C 8.597656 -21.726562 9.5625 -21.046875 10.71875 -20.578125 C 11.875 -20.109375 13.4375 -19.609375 15.40625 -19.078125 C 17.6875 -18.441406 19.523438 -17.8125 20.921875 -17.1875 C 22.328125 -16.570312 23.515625 -15.628906 24.484375 -14.359375 C 25.460938 -13.085938 25.953125 -11.378906 25.953125 -9.234375 C 25.953125 -7.597656 25.515625 -6.039062 24.640625 -4.5625 C 23.773438 -3.09375 22.488281 -1.90625 20.78125 -1 C 19.070312 -0.101562 17.03125 0.34375 14.65625 0.34375 Z M 14.65625 0.34375 "/></g></g></g><g fill="#848be3" fill-opacity="1"><g transform="translate(58.000817, 39.825892)"><g><path d="M 7.53125 -35.078125 L 7.53125 0 L 4.015625 0 L 4.015625 -35.078125 Z M 7.53125 -35.078125 "/></g></g></g></svg>