<svg width="100" height="55" viewBox="0 0 100 55" fill="none" xmlns="http://www.w3.org/2000/svg">
<g clip-path="url(#clip0_5_448)">
<path d="M-3.05176e-05 0H1.13037V28.9374H-3.05176e-05V0ZM2.26077 0H3.39117V28.9374H2.26077V0ZM9.04821 0H10.1786V28.9374H9.04821V0ZM31.0513 0H32.1817V28.9374H31.0513V0ZM38.4073 0H39.5377V28.9374H38.4073V0ZM45.5403 0H46.6707V28.9374H45.5403V0ZM47.3785 0H48.5089V28.9374H47.38L47.3785 0ZM49.2194 0H50.3498V28.9374H49.2194V0ZM51.2883 0H52.4187V28.9374H51.2886L51.2883 0ZM53.3567 0H54.4871V28.9374H53.3567V0ZM59.1074 0H60.2378V28.9374H59.1059L59.1074 0ZM73.3657 0H74.4961V28.9374H73.3657V0ZM88.2385 0H89.3685V28.9374H88.2381L88.2385 0ZM92.3066 0H93.437V28.9374H92.3066V0ZM95.2477 0H96.3781V28.9374H95.2477V0ZM97.0573 0H98.1877V28.9374H97.0573V0ZM16.5133 0H17.6437V28.9374H16.5133V0ZM5.2019 0H7.23747V28.9374H5.2019V0ZM18.6347 0H20.6699V28.9374H18.6347V0ZM28.0669 0H30.102V28.9374H28.0669V0ZM32.8957 0H34.9309V28.9374H32.8957V0ZM40.4846 0H42.5198V28.9374H40.4846V0ZM62.1205 0H65.2861V28.9374H62.1205V0ZM66.2555 0H68.7419V28.9374H66.2528L66.2555 0ZM70.6188 0H72.654V28.9374H70.6188V0ZM76.3885 0H79.782V28.9374H76.3885V0ZM83.0339 0H86.4278V28.9374H83.0339V0ZM11.3102 0H15.3805V28.9374H11.3102V0ZM21.8603 0H25.0259V28.9374H21.8603V0Z" fill="#B7B4B4"/>
<path d="M1.46397 54.631V38.0681H7.91047C8.98773 38.028 10.0622 38.1988 11.0691 38.5703C11.8408 38.8883 12.4914 39.4291 12.9313 40.1183C13.3673 40.7704 13.6013 41.5289 13.6058 42.3047C13.6059 43.0121 13.3987 43.7052 13.0083 44.3042C12.5684 44.964 11.9422 45.4889 11.2034 45.8171C12.1516 46.0522 12.9941 46.5795 13.6027 47.3189C14.1659 48.0407 14.4609 48.9242 14.4402 49.8273C14.4468 50.5769 14.2726 51.3177 13.9313 51.9913C13.6427 52.5952 13.2092 53.1241 12.6666 53.5345C12.1018 53.9252 11.4623 54.2042 10.7851 54.3553C9.87696 54.556 8.94685 54.6493 8.01534 54.6329L1.46397 54.631ZM3.73949 45.0284H7.4546C8.18015 45.0556 8.90628 44.991 9.6144 44.8362C10.1327 44.7095 10.5922 44.4196 10.9201 44.0124C11.2254 43.5891 11.3795 43.0815 11.3593 42.5662C11.3698 42.0548 11.2274 41.5512 10.9491 41.1156C10.6836 40.7021 10.2709 40.3961 9.78815 40.2548C8.93163 40.0649 8.0525 39.987 7.17441 40.0231H3.74027L3.73949 45.0284ZM3.73949 52.6771H8.01612C8.53344 52.6902 9.05103 52.664 9.56408 52.5987C10.0281 52.526 10.4736 52.3689 10.8768 52.1357C11.2452 51.9063 11.5441 51.5871 11.7432 51.2104C11.9758 50.7825 12.093 50.3051 12.0842 49.8221C12.1002 49.2457 11.9281 48.6791 11.5923 48.202C11.2608 47.7442 10.7801 47.4063 10.2266 47.242C9.40821 47.0286 8.56115 46.935 7.71388 46.9644H3.73949V52.6771ZM17.7625 46.5659C17.6183 44.2057 18.4431 41.8855 20.0585 40.1067C20.8199 39.3359 21.7421 38.7294 22.7644 38.3273C23.7867 37.9252 24.8858 37.7367 25.9891 37.7741C27.4959 37.7543 28.9793 38.1337 30.2778 38.871C31.5399 39.5904 32.5529 40.6539 33.1891 41.9275C33.8748 43.3146 34.2174 44.8363 34.1899 46.3727C34.2187 47.9346 33.8583 49.4804 33.1388 50.8802C32.4855 52.154 31.4426 53.2039 30.1508 53.8882C28.8738 54.567 27.4377 54.9191 25.9795 54.9109C24.4536 54.9351 22.9516 54.5446 21.6452 53.7841C20.3882 53.0494 19.3814 51.9765 18.7485 50.6974C18.096 49.4112 17.7586 47.9977 17.7625 46.5659ZM20.1073 46.6006C20.0097 48.3241 20.6123 50.0163 21.7872 51.3186C22.3172 51.8781 22.9656 52.3216 23.6885 52.6189C24.4115 52.9163 25.1922 53.0607 25.9779 53.0423C26.7684 53.0617 27.5538 52.9159 28.2803 52.6152C29.0069 52.3144 29.6574 51.8658 30.1872 51.2999C31.3727 49.918 31.966 48.1518 31.8459 46.3622C31.8773 45.1506 31.6391 43.9466 31.1473 42.8311C30.714 41.8692 29.9918 41.0545 29.0738 40.4918C28.1565 39.9361 27.0922 39.6477 26.0089 39.6612C25.2412 39.65 24.4788 39.7855 23.7658 40.0599C23.0528 40.3343 22.4032 40.7422 21.8545 41.26C21.2054 41.9904 20.7161 42.8398 20.4158 43.7571C20.1156 44.6744 20.0106 45.6407 20.1073 46.598V46.6006ZM37.9178 54.6321V38.0681H40.1905V52.6756H48.6506V54.631L37.9178 54.6321ZM52.2937 54.6321V38.0681H64.7161V40.0231H54.5665V45.0974H64.0706V47.0409H54.5665V52.6774H65.1147V54.6329L52.2937 54.6321ZM73.5147 54.6321V40.0231H67.8519V38.0681H81.4693V40.0231H75.786V54.631L73.5147 54.6321ZM83.5657 46.5659C83.4233 44.2053 84.2501 41.8855 85.8675 40.1078C86.6288 39.337 87.5509 38.7305 88.5731 38.3284C89.5954 37.9263 90.6944 37.7377 91.7977 37.7752C93.3045 37.7554 94.7879 38.1348 96.0864 38.8721C97.3486 39.5914 98.3616 40.6549 98.9977 41.9286C99.6837 43.3157 100.026 44.8374 99.9984 46.3738C100.027 47.9359 99.6654 49.4817 98.9451 50.8813C98.2896 52.1573 97.2431 53.2082 95.9474 53.8915C94.6704 54.5703 93.2343 54.9223 91.776 54.9142C90.2492 54.9384 88.7461 54.5471 87.4394 53.7852C86.185 53.0496 85.1806 51.9768 84.5498 50.6985C83.8977 49.4118 83.561 47.9979 83.5657 46.5659ZM85.9104 46.6006C85.8129 48.3241 86.4155 50.0163 87.5904 51.3186C88.1204 51.8781 88.7688 52.3216 89.4917 52.6189C90.2146 52.9163 90.9953 53.0607 91.7811 53.0423C92.5738 53.064 93.3619 52.9196 94.0912 52.6192C94.8204 52.3188 95.4734 51.8694 96.0051 51.3022C97.1905 49.9203 97.7837 48.154 97.6633 46.3645C97.688 45.1513 97.4424 43.9472 96.9432 42.8334C96.5097 41.8715 95.7875 41.0568 94.8697 40.494C93.9528 39.9387 92.8893 39.6503 91.8066 39.6635C91.0389 39.6522 90.2765 39.7877 89.5634 40.0621C88.8503 40.3365 88.2006 40.7444 87.6519 41.2622C87.0041 41.9928 86.516 42.8419 86.2168 43.7587C85.9175 44.6755 85.8133 45.6411 85.9104 46.5977V46.6006Z" fill="#B7B4B4"/>
</g>
<defs>
<clipPath id="clip0_5_448">
<rect width="100" height="54.9143" fill="white"/>
</clipPath>
</defs>
</svg>
