<svg width="74" height="26" viewBox="0 0 74 26" fill="none" xmlns="http://www.w3.org/2000/svg">
<path d="M30.7004 23.404V9.3188C30.7004 8.70261 30.8275 8.09245 31.0744 7.52318C31.3212 6.9539 31.6831 6.43667 32.1392 6.00102C32.5954 5.56537 33.1369 5.21984 33.7328 4.98416C34.3288 4.74847 34.9675 4.62726 35.6125 4.62744H39.9607C41.2598 4.63001 42.5048 5.12483 43.4224 6.00331C44.34 6.8818 44.8554 8.07219 44.8554 9.31327V12.3111C44.8554 13.5557 44.3379 14.7493 43.4167 15.6294C42.4955 16.5095 41.2461 17.0039 39.9433 17.0039H33.7935" stroke="#B7B4B4" stroke-width="0.750585" stroke-linecap="round" stroke-linejoin="round"/>
<path d="M46.0758 4.62476H47.96C48.4947 4.62476 49.0075 4.82769 49.3856 5.1889C49.7637 5.55012 49.9762 6.04003 49.9762 6.55087V17.0746" stroke="#B7B4B4" stroke-width="0.750585" stroke-linecap="round" stroke-linejoin="round"/>
<path d="M49.5689 2.99496L48.7137 2.1766C48.6631 2.12837 48.623 2.07107 48.5956 2.00798C48.5682 1.9449 48.554 1.87727 48.554 1.80896C48.554 1.74066 48.5682 1.67303 48.5956 1.60995C48.623 1.54686 48.6631 1.48956 48.7137 1.44133L49.5689 0.624356C49.6194 0.575999 49.6794 0.53763 49.7454 0.511452C49.8114 0.485275 49.8822 0.471802 49.9537 0.471802C50.0252 0.471802 50.096 0.485275 50.162 0.511452C50.228 0.53763 50.288 0.575999 50.3385 0.624356L51.1951 1.44133C51.2457 1.48956 51.2859 1.54686 51.3133 1.60995C51.3407 1.67303 51.3548 1.74066 51.3548 1.80896C51.3548 1.87727 51.3407 1.9449 51.3133 2.00798C51.2859 2.07107 51.2457 2.12837 51.1951 2.1766L50.3385 2.99496C50.288 3.04332 50.228 3.08168 50.162 3.10786C50.096 3.13404 50.0252 3.14751 49.9537 3.14751C49.8822 3.14751 49.8114 3.13404 49.7454 3.10786C49.6794 3.08168 49.6194 3.04332 49.5689 2.99496" fill="#B7B4B4"/>
<path d="M53.6026 4.61646H55.4753C56.4385 4.61661 57.3624 4.98219 58.0436 5.63282L62.4237 9.816C62.5584 9.94516 62.7184 10.0476 62.8947 10.1176C63.0709 10.1875 63.2598 10.2235 63.4507 10.2235C63.6415 10.2235 63.8304 10.1875 64.0066 10.1176C64.1829 10.0476 64.3429 9.94516 64.4776 9.816L68.8461 5.64806C69.1833 5.32577 69.5837 5.07012 70.0244 4.89573C70.4651 4.72134 70.9375 4.63161 71.4145 4.63168H72.9363" stroke="#B7B4B4" stroke-width="0.750585" stroke-linecap="round" stroke-linejoin="round"/>
<path d="M53.6026 16.9804H55.4753C56.4385 16.9803 57.3624 16.6147 58.0436 15.9641L62.4237 11.7823C62.5584 11.6531 62.7184 11.5506 62.8947 11.4807C63.0709 11.4108 63.2598 11.3748 63.4507 11.3748C63.6415 11.3748 63.8304 11.4108 64.0066 11.4807C64.1829 11.5506 64.3429 11.6531 64.4776 11.7823L68.8461 15.9488C69.1833 16.2711 69.5837 16.5267 70.0244 16.7011C70.4651 16.8755 70.9375 16.9653 71.4145 16.9652H72.9363" stroke="#B7B4B4" stroke-width="0.750585" stroke-linecap="round" stroke-linejoin="round"/>
<path d="M19.537 19.6528C19.0747 19.6542 18.6166 19.5679 18.1894 19.3989C17.7622 19.2299 17.3744 18.9816 17.0484 18.6683L13.4553 15.244C13.3284 15.1276 13.1594 15.0626 12.9835 15.0626C12.8076 15.0626 12.6386 15.1276 12.5117 15.244L8.90556 18.6877C8.57955 19.0009 8.19171 19.2492 7.76452 19.4182C7.33733 19.5872 6.8793 19.6736 6.41693 19.6722H5.70962L10.2593 24.0202C10.942 24.6719 11.8677 25.0379 12.8328 25.0379C13.7979 25.0379 14.7235 24.6719 15.4062 24.0202L19.969 19.6598L19.537 19.6528Z" fill="#B7B4B4"/>
<path d="M6.41692 7.51183C6.87924 7.51079 7.33719 7.59726 7.76434 7.76624C8.19148 7.93522 8.57935 8.18337 8.90555 8.49635L12.5117 11.9415C12.6369 12.0608 12.8066 12.1278 12.9835 12.1278C13.1604 12.1278 13.33 12.0608 13.4553 11.9415L17.0484 8.50881C17.3746 8.19583 17.7624 7.94768 18.1896 7.7787C18.6167 7.60972 19.0747 7.52325 19.537 7.52429H19.9718L15.4091 3.16526C15.0712 2.84224 14.6701 2.58601 14.2285 2.41118C13.7869 2.23635 13.3136 2.14636 12.8356 2.14636C12.3577 2.14636 11.8844 2.23635 11.4428 2.41118C11.0012 2.58601 10.6001 2.84224 10.2622 3.16526L5.71251 7.51183H6.41692Z" fill="#B7B4B4"/>
<path d="M23.7446 11.1301L20.9908 8.49916C20.9285 8.52296 20.8622 8.53563 20.7951 8.53654H19.5413C18.8887 8.53913 18.2635 8.78798 17.802 9.22889L14.2032 12.6546C14.0432 12.8077 13.8532 12.929 13.644 13.0117C13.4348 13.0944 13.2106 13.1368 12.9842 13.1365C12.5268 13.1373 12.0878 12.9644 11.7638 12.656L8.15766 9.21089C7.69618 8.76998 7.07103 8.52113 6.41837 8.51854H4.87764C4.81402 8.51742 4.75115 8.50522 4.69211 8.48254L1.92373 11.1273C1.58562 11.4501 1.31741 11.8333 1.13441 12.2552C0.951415 12.677 0.857216 13.1292 0.857216 13.5858C0.857216 14.0425 0.951415 14.4947 1.13441 14.9165C1.31741 15.3383 1.58562 15.7216 1.92373 16.0444L4.69211 18.6892C4.75115 18.6665 4.81402 18.6543 4.87764 18.6532H6.41837C7.07093 18.6501 7.69591 18.4013 8.15766 17.9608L11.7638 14.5157C12.0925 14.2161 12.5292 14.049 12.9835 14.049C13.4377 14.049 13.8745 14.2161 14.2032 14.5157L17.7963 17.9483C18.258 18.3889 18.883 18.6377 19.5356 18.6407H20.7893C20.8565 18.6414 20.923 18.6545 20.985 18.6795L23.7389 16.0485C24.421 15.3963 24.8042 14.512 24.8042 13.59C24.8042 12.668 24.421 11.7837 23.7389 11.1315" fill="#B7B4B4"/>
<path d="M34.4442 22.2063C34.2161 22.2161 33.9897 22.249 33.7688 22.3046V23.1631C33.9378 23.2199 34.1158 23.2485 34.2949 23.2476C34.7457 23.2476 34.9588 23.1022 34.9588 22.7228C34.9588 22.3669 34.7834 22.2063 34.4442 22.2063V22.2063ZM33.6166 23.8001V22.1038H33.7413L33.7543 22.1772C33.9842 22.1185 34.2197 22.0823 34.4573 22.0692C34.6218 22.0584 34.7851 22.1035 34.9182 22.1966C34.991 22.2643 35.047 22.3466 35.0822 22.4377C35.1173 22.5288 35.1306 22.6262 35.1211 22.7228C35.1297 22.8306 35.1073 22.9385 35.0562 23.035C35.0051 23.1314 34.9273 23.2126 34.8312 23.2697C34.6687 23.3463 34.4892 23.3843 34.308 23.3805C34.1247 23.3795 33.9426 23.3529 33.7674 23.3016V23.8001H33.6166Z" fill="#B7B4B4"/>
<path d="M36.2516 22.2021C35.8009 22.2021 35.6009 22.3406 35.6009 22.7159C35.6009 23.0911 35.7994 23.2476 36.2516 23.2476C36.7039 23.2476 36.901 23.1091 36.901 22.7352C36.901 22.3614 36.7024 22.2021 36.2516 22.2021V22.2021ZM36.8314 23.2476C36.6579 23.3501 36.4553 23.3985 36.2516 23.386C36.0481 23.3977 35.8457 23.3494 35.6719 23.2476C35.5907 23.1859 35.527 23.1059 35.4865 23.0147C35.446 22.9235 35.43 22.8241 35.44 22.7255C35.4307 22.6268 35.447 22.5274 35.4874 22.4361C35.5279 22.3449 35.5912 22.2645 35.6719 22.2021C35.8454 22.0997 36.048 22.0513 36.2516 22.0637C36.4552 22.0516 36.6577 22.0999 36.8314 22.2021C36.912 22.2639 36.9754 22.3438 37.0159 22.4346C37.0563 22.5255 37.0726 22.6245 37.0633 22.7228C37.0732 22.8218 37.0573 22.9216 37.0168 23.0132C36.9763 23.1048 36.9126 23.1853 36.8314 23.2476" fill="#B7B4B4"/>
<path d="M38.9635 23.3458L38.462 22.3156H38.4519L37.9576 23.3458H37.8286L37.2923 22.0996H37.4605L37.9054 23.1423H37.9156L38.3997 22.0996H38.5446L39.0418 23.1423H39.0519L39.4867 22.0996H39.6491L39.1142 23.3458H38.9635Z" fill="#B7B4B4"/>
<path d="M40.6071 22.1993C40.1897 22.1993 40.0491 22.3766 40.0274 22.6327H41.1956C41.184 22.3489 41.0318 22.1993 40.6158 22.1993H40.6071ZM40.6158 23.3805C40.4239 23.4 40.2312 23.3506 40.0752 23.242C40.0003 23.1764 39.9419 23.0956 39.9042 23.0054C39.8666 22.9153 39.8507 22.8182 39.8578 22.7214C39.8521 22.6209 39.8711 22.5205 39.9131 22.4282C39.9551 22.3359 40.019 22.2542 40.0998 22.1896C40.2515 22.0993 40.4286 22.0558 40.6071 22.065C40.7893 22.0542 40.9707 22.0962 41.1275 22.1855C41.3159 22.3059 41.3521 22.5178 41.3521 22.7587H40.0172C40.0172 23.0135 40.11 23.2406 40.6144 23.2406C40.8403 23.2355 41.0654 23.2114 41.2869 23.1686V23.2988C41.0617 23.3437 40.8328 23.3697 40.6028 23.3763" fill="#B7B4B4"/>
<path d="M41.787 23.3459V22.0997H41.9116L41.9247 22.1731C42.1331 22.1076 42.3503 22.0713 42.5697 22.0651H42.5885V22.2035H42.5523C42.344 22.2079 42.1375 22.241 41.9392 22.3018V23.3431L41.787 23.3459Z" fill="#B7B4B4"/>
<path d="M43.4712 22.1993C43.0537 22.1993 42.9117 22.3765 42.8914 22.6327H44.0611C44.048 22.3488 43.8959 22.1993 43.4813 22.1993H43.4712ZM43.4813 23.3804C43.2894 23.3995 43.0969 23.3502 42.9407 23.242C42.8689 23.1756 42.8135 23.0949 42.7784 23.0055C42.7433 22.9162 42.7294 22.8205 42.7378 22.7255C42.7321 22.625 42.7511 22.5246 42.7931 22.4323C42.8351 22.34 42.899 22.2583 42.9798 22.1937C43.1315 22.1034 43.3086 22.0599 43.4871 22.0691C43.6688 22.0585 43.8497 22.1005 44.006 22.1896C44.1944 22.3101 44.2307 22.5219 44.2307 22.7629H42.8972C42.8972 23.0176 42.99 23.2447 43.4944 23.2447C43.7203 23.2395 43.9453 23.2154 44.1669 23.1727V23.3029C43.9412 23.3478 43.7118 23.3737 43.4813 23.3804" fill="#B7B4B4"/>
<path d="M45.8787 22.2852C45.7101 22.2289 45.5326 22.2008 45.354 22.2021C44.9032 22.2021 44.6887 22.3475 44.6887 22.7255C44.6887 23.1035 44.8641 23.242 45.2047 23.242C45.4321 23.2318 45.6579 23.1998 45.8787 23.1465V22.2852ZM45.9077 23.3459L45.8946 23.2711C45.6648 23.3302 45.4293 23.3668 45.1917 23.3805C45.0267 23.3925 44.8629 23.3468 44.7307 23.2517C44.6574 23.1843 44.6009 23.1021 44.5655 23.0109C44.5302 22.9198 44.5168 22.8223 44.5264 22.7255C44.5178 22.6181 44.5403 22.5106 44.5914 22.4146C44.6426 22.3186 44.7204 22.2379 44.8163 22.1813C44.9792 22.1029 45.16 22.0643 45.3424 22.0692C45.5246 22.0712 45.7057 22.0978 45.8801 22.1481V21.579H46.0323V23.3459H45.9077Z" fill="#B7B4B4"/>
<path d="M48.2644 22.2062C48.0362 22.216 47.8098 22.249 47.589 22.3046V23.1603C47.7575 23.2191 47.9357 23.2486 48.1151 23.2475C48.5659 23.2475 48.7789 23.1021 48.7789 22.7227C48.7789 22.3669 48.6036 22.2062 48.2644 22.2062V22.2062ZM48.6528 23.2697C48.4903 23.3463 48.3108 23.3843 48.1296 23.3805C47.9323 23.3785 47.7367 23.3467 47.5498 23.2863V23.3459H47.4455V21.579H47.5904V22.1675C47.816 22.1125 48.0465 22.0782 48.2789 22.065C48.4434 22.0542 48.6067 22.0993 48.7398 22.1924C48.8126 22.2601 48.8686 22.3424 48.9038 22.4335C48.9389 22.5245 48.9522 22.622 48.9427 22.7186C48.9513 22.8264 48.9289 22.9343 48.8778 23.0308C48.8267 23.1272 48.7489 23.2084 48.6528 23.2655" fill="#B7B4B4"/>
<path d="M49.134 23.8291V23.6907C49.208 23.6907 49.279 23.7031 49.3268 23.7031C49.4149 23.71 49.5029 23.6885 49.5767 23.6421C49.6505 23.5957 49.7059 23.527 49.7341 23.447L49.7834 23.3486L49.1036 22.1024H49.279L49.8588 23.1742H49.8689L50.4226 22.1024H50.5951L49.8704 23.4968C49.7356 23.7502 49.5921 23.8333 49.3268 23.8333C49.2625 23.8361 49.1981 23.8347 49.134 23.8291Z" fill="#B7B4B4"/>
<path d="M52.6938 22.6369H52.188V23.073H52.6953C53.0431 23.073 53.175 23.0357 53.175 22.8529C53.175 22.6701 52.9938 22.6369 52.6938 22.6369V22.6369ZM52.6011 21.9307H52.188V22.3738H52.6025C52.946 22.3738 53.0823 22.335 53.0823 22.1494C53.0823 21.9639 52.9098 21.9307 52.6011 21.9307V21.9307ZM53.3837 23.2281C53.1982 23.3403 52.9736 23.3458 52.5648 23.3458H51.7952V21.6606H52.546C52.8996 21.6606 53.1156 21.6606 53.2953 21.7687C53.3552 21.8028 53.404 21.8523 53.436 21.9115C53.468 21.9707 53.482 22.0373 53.4765 22.1037C53.481 22.1869 53.4559 22.2691 53.4054 22.3369C53.3549 22.4048 53.2819 22.4543 53.1982 22.4776V22.4873C53.4243 22.5358 53.5707 22.6466 53.5707 22.8861C53.5762 22.9541 53.5616 23.0222 53.5285 23.0827C53.4955 23.1432 53.4453 23.1936 53.3837 23.2281" fill="#B7B4B4"/>
<path d="M55.1114 22.8238C54.9665 22.8114 54.8056 22.8044 54.6433 22.8044C54.378 22.8044 54.2853 22.8557 54.2853 22.972C54.2853 23.0883 54.3621 23.1381 54.565 23.1381C54.7493 23.132 54.9325 23.1074 55.1114 23.0648V22.8238ZM55.1883 23.3459L55.1781 23.2711C54.948 23.3335 54.7112 23.3702 54.4722 23.3805C54.3346 23.3892 54.1975 23.3573 54.0795 23.2891C54.0313 23.2543 53.9928 23.2086 53.9675 23.1562C53.9422 23.1038 53.9309 23.0462 53.9345 22.9886C53.9312 22.918 53.9503 22.848 53.9894 22.788C54.0284 22.7279 54.0856 22.6806 54.1534 22.6521C54.3093 22.5964 54.4757 22.5728 54.6418 22.5829C54.7781 22.5829 54.9607 22.5898 55.1129 22.5995V22.5829C55.1129 22.389 54.9795 22.3253 54.6128 22.3253C54.4679 22.3253 54.2998 22.3323 54.1345 22.3475V22.0955C54.3172 22.0816 54.523 22.0719 54.6926 22.0719C54.9018 22.0543 55.112 22.0942 55.2984 22.1869C55.4434 22.2879 55.4752 22.4278 55.4752 22.6133V23.3486L55.1883 23.3459Z" fill="#B7B4B4"/>
<path d="M57.1725 23.3459V22.6535C57.1725 22.4278 57.0508 22.3461 56.8348 22.3461C56.6554 22.3535 56.4775 22.3799 56.3043 22.425V23.3403H55.9463V22.0941H56.2362L56.2492 22.1716C56.4754 22.1089 56.7083 22.0713 56.9435 22.0595C57.1037 22.0476 57.2628 22.093 57.3899 22.1869C57.4427 22.2375 57.483 22.2986 57.5081 22.3659C57.5332 22.4332 57.5423 22.5049 57.5349 22.576V23.3362L57.1725 23.3459Z" fill="#B7B4B4"/>
<path d="M58.5552 23.3805C58.3826 23.3933 58.2108 23.3467 58.0711 23.249C57.9971 23.1821 57.94 23.0999 57.9044 23.0087C57.8687 22.9175 57.8553 22.8197 57.8653 22.7228C57.8584 22.6201 57.8792 22.5174 57.9256 22.4246C57.972 22.3318 58.0426 22.2518 58.1305 22.1924C58.3044 22.0993 58.5028 22.0565 58.7016 22.0692C58.8465 22.0692 58.9987 22.0789 59.1596 22.0927V22.3586C59.0292 22.3475 58.8697 22.3364 58.7451 22.3364C58.4001 22.3364 58.2378 22.4403 58.2378 22.7255C58.2378 23.0108 58.3595 23.1091 58.6422 23.1091C58.826 23.1037 59.0089 23.0824 59.1886 23.0454V23.3016C58.9806 23.3473 58.7685 23.3737 58.5552 23.3805Z" fill="#B7B4B4"/>
<path d="M60.2641 22.3294C59.9191 22.3294 59.7669 22.4333 59.7669 22.7158C59.7669 22.9982 59.9119 23.1187 60.2641 23.1187C60.6163 23.1187 60.7554 23.0176 60.7554 22.7352C60.7554 22.4527 60.6105 22.3294 60.2641 22.3294V22.3294ZM60.8873 23.2489C60.698 23.3512 60.4809 23.3971 60.2641 23.3804C60.0464 23.3965 59.8285 23.3508 59.6379 23.2489C59.553 23.1895 59.4858 23.11 59.4429 23.0182C59.3999 22.9264 59.3827 22.8255 59.393 22.7255C59.3828 22.625 59.4 22.5238 59.4429 22.4315C59.4858 22.3393 59.553 22.2593 59.6379 22.1993C59.8287 22.0979 60.0465 22.0526 60.2641 22.0691C60.4807 22.0532 60.6974 22.0985 60.8873 22.1993C60.9716 22.2591 61.0382 22.3388 61.0806 22.4305C61.123 22.5222 61.1398 22.6229 61.1294 22.7227C61.1396 22.8229 61.1228 22.9239 61.0804 23.016C61.038 23.1082 60.9715 23.1884 60.8873 23.2489" fill="#B7B4B4"/>
<path d="M63.2252 23.3805C62.9991 23.3942 62.7751 23.332 62.5918 23.2047C62.3802 23.0385 62.3165 22.7795 62.3165 22.5012C62.3089 22.3628 62.3377 22.2249 62.4002 22.0998C62.4628 21.9748 62.557 21.8667 62.6745 21.7853C62.9022 21.665 63.1613 21.6098 63.4209 21.6261C63.6166 21.6261 63.8166 21.6386 64.0355 21.6552V21.9584C63.8485 21.9432 63.6166 21.9307 63.4369 21.9307C62.9339 21.9307 62.7208 22.1135 62.7208 22.5012C62.7208 22.8889 62.918 23.0745 63.289 23.0745C63.5538 23.0662 63.817 23.0323 64.0746 22.9734V23.2753C63.7959 23.3377 63.5114 23.3734 63.2252 23.3819" fill="#B7B4B4"/>
<path d="M65.1414 22.2907C64.8399 22.2907 64.7239 22.3932 64.7065 22.5829H65.5762C65.566 22.3807 65.4428 22.2907 65.1414 22.2907ZM65.0877 23.3805C64.8928 23.3973 64.6979 23.3483 64.537 23.242C64.4633 23.1761 64.4063 23.0952 64.3701 23.0053C64.334 22.9153 64.3197 22.8187 64.3282 22.7227C64.3225 22.6233 64.3416 22.524 64.384 22.433C64.4263 22.342 64.4907 22.2619 64.5717 22.1993C64.7431 22.101 64.942 22.0555 65.1414 22.0691C65.338 22.0575 65.5339 22.1008 65.7052 22.1938C65.9139 22.3322 65.9313 22.551 65.9342 22.8072H64.6978C64.7065 22.9969 64.8123 23.1187 65.1776 23.1187C65.4099 23.1138 65.6414 23.0926 65.8704 23.055V23.2988C65.6122 23.3456 65.3505 23.3729 65.0877 23.3805Z" fill="#B7B4B4"/>
<path d="M67.5488 23.3459V22.6535C67.5488 22.4278 67.4285 22.3461 67.2126 22.3461C67.0332 22.3535 66.8553 22.3799 66.6821 22.425V23.3403H66.3183V22.0941H66.6154L66.6285 22.1716C66.8546 22.1088 67.0876 22.0712 67.3227 22.0595C67.4829 22.0476 67.642 22.093 67.7692 22.1869C67.8219 22.2375 67.8623 22.2986 67.8873 22.3659C67.9124 22.4332 67.9215 22.5049 67.9141 22.576V23.3362L67.5488 23.3459Z" fill="#B7B4B4"/>
<path d="M68.9432 23.3805C68.8629 23.3879 68.7819 23.3755 68.708 23.3445C68.6342 23.3135 68.5699 23.2648 68.5214 23.2033C68.4494 23.0902 68.416 22.9586 68.4257 22.8266V22.3614H68.1634V22.1038H68.4257L68.4649 21.7272H68.7866V22.1038H69.2983V22.3614H68.7866V22.7602C68.7815 22.8406 68.7939 22.9212 68.8229 22.9969C68.8449 23.0371 68.8795 23.0698 68.9218 23.0904C68.9641 23.111 69.0121 23.1185 69.0591 23.1119C69.1462 23.1104 69.233 23.1021 69.3186 23.0869V23.3362C69.1951 23.3621 69.0695 23.3769 68.9432 23.3805" fill="#B7B4B4"/>
<path d="M69.6534 23.3459V22.0997H69.9433L69.9563 22.1772C70.164 22.1103 70.3808 22.0725 70.5999 22.0651H70.6462V22.3614C70.6042 22.3614 70.5564 22.3614 70.5201 22.3614C70.3479 22.362 70.1765 22.3834 70.01 22.4251V23.3431L69.6534 23.3459Z" fill="#B7B4B4"/>
<path d="M71.9725 22.8238C71.8203 22.8114 71.6652 22.8045 71.5028 22.8045C71.2376 22.8045 71.1448 22.8557 71.1448 22.972C71.1448 23.0883 71.2231 23.1382 71.426 23.1382C71.6103 23.1318 71.7935 23.1072 71.9725 23.0648V22.8238ZM72.0493 23.3459L72.0348 23.2752C71.8047 23.3376 71.5678 23.3743 71.3289 23.3846C71.1908 23.3932 71.0533 23.3613 70.9347 23.2932C70.8867 23.2583 70.8484 23.2126 70.8231 23.1602C70.7978 23.1078 70.7864 23.0504 70.7897 22.9928C70.7862 22.9201 70.8065 22.8482 70.8478 22.7872C70.8892 22.7261 70.9494 22.6789 71.0202 22.6521C71.1753 22.5976 71.3408 22.575 71.5057 22.5857C71.642 22.5857 71.8261 22.5926 71.9783 22.6023V22.5829C71.9783 22.389 71.8435 22.3253 71.4782 22.3253C71.3333 22.3253 71.1637 22.3323 70.9984 22.3475V22.0955C71.1825 22.0816 71.3883 22.0719 71.5579 22.0719C71.7668 22.0543 71.9765 22.0942 72.1623 22.1869C72.3073 22.288 72.3406 22.4278 72.3406 22.6134V23.3486L72.0493 23.3459Z" fill="#B7B4B4"/>
<path d="M72.8015 21.579H73.1653V23.3459H72.8015V21.579Z" fill="#B7B4B4"/>
</svg>
