<svg width="100" height="31" viewBox="0 0 100 31" fill="none" xmlns="http://www.w3.org/2000/svg">
<path d="M28.9187 25.4593V11.6415C28.9181 11.6254 28.9208 11.6093 28.9268 11.5942C28.9327 11.5792 28.9417 11.5653 28.9532 11.5536C28.9647 11.5418 28.9786 11.5323 28.9939 11.5257C29.0093 11.519 29.0259 11.5153 29.0427 11.5148H31.8285C31.8637 11.5148 31.8974 11.5281 31.9223 11.5519C31.9472 11.5757 31.9611 11.6079 31.9611 11.6415V16.6208H32.0039C32.3788 16.1927 32.8526 15.8535 33.3879 15.6301C33.9233 15.4066 34.5057 15.3049 35.0892 15.3331C37.2759 15.3331 37.9777 16.6985 37.9777 18.5095V25.4593C37.9777 25.4929 37.9637 25.5252 37.9388 25.5489C37.9139 25.5727 37.8802 25.5861 37.845 25.5861H35.0507C35.0155 25.5861 34.9818 25.5727 34.9569 25.5489C34.932 25.5252 34.9181 25.4929 34.9181 25.4593V18.7671C34.9181 17.9822 34.0622 17.741 33.5145 17.741C32.9668 17.741 31.9611 18.0844 31.9611 19.0655V25.4593C31.9611 25.4929 31.9472 25.5252 31.9223 25.5489C31.8974 25.5727 31.8637 25.5861 31.8285 25.5861H29.0513C29.0339 25.5861 29.0166 25.5828 29.0005 25.5764C28.9844 25.57 28.9698 25.5607 28.9575 25.5489C28.9452 25.5372 28.9354 25.5232 28.9288 25.5078C28.9221 25.4924 28.9187 25.476 28.9187 25.4593Z" fill="#B7B4B4"/>
<path d="M51.0933 22.7326V17.9863H49.8096C49.7922 17.9863 49.7749 17.983 49.7588 17.9766C49.7427 17.9703 49.7281 17.9609 49.7158 17.9492C49.7035 17.9374 49.6937 17.9234 49.687 17.9081C49.6804 17.8927 49.6769 17.8762 49.6769 17.8596V16.1344C49.6772 16.1082 49.6861 16.0827 49.7021 16.0615C49.7182 16.0402 49.7408 16.0243 49.7668 16.0158L51.4785 15.5375L52.3899 12.8107C52.3986 12.7928 52.4117 12.7771 52.4281 12.765C52.4445 12.7528 52.4637 12.7447 52.4841 12.7412H53.9818C53.9988 12.7401 54.0159 12.7424 54.0319 12.7478C54.048 12.7533 54.0627 12.7618 54.0751 12.7729C54.0876 12.7841 54.0975 12.7975 54.1043 12.8125C54.111 12.8274 54.1145 12.8435 54.1144 12.8598V15.558H56.361C56.3962 15.558 56.4299 15.5713 56.4548 15.5951C56.4797 15.6188 56.4937 15.6511 56.4937 15.6847V17.8677C56.4937 17.9003 56.4801 17.9315 56.4561 17.9545C56.432 17.9775 56.3993 17.9904 56.3653 17.9904H54.1144V22.4301C54.1144 22.892 54.3883 23.1741 55.0601 23.1741H56.3439C56.362 23.173 56.3802 23.1754 56.3973 23.1813C56.4144 23.1872 56.43 23.1963 56.4433 23.2082C56.4565 23.2201 56.4671 23.2344 56.4743 23.2504C56.4815 23.2663 56.4851 23.2835 56.4851 23.3008V25.2182C56.4845 25.2438 56.4761 25.2686 56.4609 25.2897C56.4457 25.3108 56.4244 25.3271 56.3995 25.3367C55.7279 25.6302 54.9985 25.7835 54.2599 25.7864C52.0219 25.7864 51.1019 24.5191 51.1019 22.7326H51.0933Z" fill="#B7B4B4"/>
<path d="M94.5697 22.7326V17.9863H93.286C93.2508 17.9863 93.217 17.9729 93.1922 17.9492C93.1673 17.9254 93.1533 17.8932 93.1533 17.8596V16.1344C93.1536 16.1082 93.1624 16.0827 93.1785 16.0615C93.1946 16.0402 93.2172 16.0243 93.2432 16.0158L94.9548 15.5375L95.8663 12.8107C95.8746 12.7856 95.8911 12.7637 95.9135 12.7482C95.9358 12.7327 95.9628 12.7246 95.9904 12.7249H97.4881C97.5051 12.7238 97.5222 12.726 97.5382 12.7315C97.5543 12.7369 97.569 12.7455 97.5815 12.7566C97.5939 12.7677 97.6038 12.7812 97.6106 12.7961C97.6173 12.8111 97.6208 12.8272 97.6208 12.8434V15.5334H99.8673C99.9025 15.5334 99.9363 15.5468 99.9611 15.5705C99.986 15.5943 100 15.6265 100 15.6602V17.8432C100 17.8757 99.9865 17.9069 99.9624 17.9299C99.9383 17.9529 99.9057 17.9659 99.8716 17.9659H97.6208V22.4219C97.6208 22.8838 97.8946 23.1659 98.5665 23.1659H99.8502C99.8676 23.1659 99.8849 23.1692 99.901 23.1756C99.9171 23.1819 99.9317 23.1913 99.944 23.203C99.9563 23.2148 99.9661 23.2288 99.9728 23.2442C99.9795 23.2595 99.9829 23.276 99.9829 23.2927V25.21C99.9823 25.2356 99.9739 25.2605 99.9587 25.2815C99.9435 25.3026 99.9221 25.3189 99.8973 25.3285C99.2257 25.622 98.4963 25.7753 97.7577 25.7782C95.4897 25.7782 94.5697 24.5109 94.5697 22.7244V22.7326Z" fill="#B7B4B4"/>
<path d="M58.3379 25.4593V15.6478C58.3379 15.6142 58.3519 15.582 58.3768 15.5582C58.4016 15.5344 58.4354 15.5211 58.4706 15.5211H60.9782C61.0058 15.5207 61.0327 15.5289 61.0551 15.5444C61.0774 15.5598 61.094 15.5818 61.1023 15.6069L61.3933 16.6044H61.436C61.8054 16.1786 62.2733 15.8406 62.8028 15.6172C63.3323 15.3937 63.9089 15.2908 64.4871 15.3167C65.9805 15.3167 66.6994 15.9585 67.1017 16.9519H67.1872C67.5358 16.4241 68.0251 15.9945 68.6049 15.7071C69.1847 15.4198 69.8341 15.285 70.4865 15.3167C72.6732 15.3167 73.3749 16.6821 73.3749 18.4931V25.4429C73.3749 25.4765 73.361 25.5088 73.3361 25.5325C73.3112 25.5563 73.2775 25.5697 73.2423 25.5697H70.4565C70.4214 25.5697 70.3876 25.5563 70.3627 25.5325C70.3379 25.5088 70.3239 25.4765 70.3239 25.4429V18.8038C70.3239 18.0189 69.5494 17.7164 69.0016 17.7164C68.3683 17.7164 67.4269 18.1007 67.3841 18.9837V25.4593C67.3847 25.4754 67.3819 25.4914 67.376 25.5065C67.37 25.5216 67.3611 25.5354 67.3495 25.5472C67.338 25.559 67.3242 25.5685 67.3088 25.5751C67.2934 25.5818 67.2769 25.5855 67.26 25.586H64.4571C64.4231 25.584 64.391 25.5699 64.3672 25.5464C64.3435 25.523 64.3298 25.4919 64.3288 25.4593V18.8038C64.3288 18.0189 63.5072 17.7164 62.9081 17.7164C62.5151 17.713 62.1363 17.8564 61.8525 18.1161C61.5687 18.3758 61.4024 18.7311 61.389 19.1063V25.4593C61.388 25.4919 61.3742 25.523 61.3505 25.5464C61.3267 25.5699 61.2947 25.584 61.2606 25.586H58.4749C58.44 25.5861 58.4064 25.5734 58.3809 25.5506C58.3555 25.5278 58.3401 25.4966 58.3379 25.4634V25.4593Z" fill="#B7B4B4"/>
<path d="M75.2107 17.7451V15.9423C75.2119 15.9134 75.223 15.8857 75.2423 15.8635C75.2617 15.8414 75.2882 15.8259 75.3177 15.8196C76.6541 15.5414 78.0154 15.3867 79.3829 15.3577C82.0745 15.3577 83.6621 15.9791 83.6621 18.7549V25.4635C83.6621 25.4971 83.6481 25.5293 83.6232 25.5531C83.5983 25.5769 83.5646 25.5902 83.5294 25.5902H80.8763C80.8476 25.5901 80.8198 25.5807 80.7973 25.5637C80.7748 25.5466 80.7589 25.5229 80.7522 25.4962L80.4484 24.5028H80.5682C79.8108 25.5084 78.8052 25.7905 77.5728 25.7905C75.5958 25.7905 74.5432 24.3229 74.5432 22.5936C74.5432 19.9813 76.5415 19.458 78.035 19.458H80.6025V18.8039C80.6025 17.9863 79.9606 17.8024 77.5215 17.8024C76.4902 17.8024 75.3819 17.88 75.3348 17.88C75.3004 17.876 75.2687 17.8601 75.2458 17.8352C75.223 17.8103 75.2104 17.7782 75.2107 17.7451ZM80.611 21.2568H78.9421C78.0564 21.2568 77.4829 21.5798 77.4829 22.4832C77.4829 23.4562 78.2147 23.677 78.9165 23.677C79.1297 23.688 79.3432 23.6588 79.5446 23.591C79.7461 23.5232 79.9316 23.4182 80.0905 23.2819C80.2495 23.1456 80.3788 22.9807 80.471 22.7967C80.5633 22.6127 80.6166 22.4131 80.6281 22.2093C80.6324 22.1535 80.6324 22.0975 80.6281 22.0417V21.2241L80.611 21.2568Z" fill="#B7B4B4"/>
<path d="M85.4337 25.4596V15.6481C85.4346 15.6308 85.4394 15.6139 85.4476 15.5985C85.4559 15.5831 85.4675 15.5696 85.4817 15.5588C85.4958 15.548 85.5122 15.5401 85.5297 15.5358C85.5473 15.5315 85.5656 15.5307 85.5834 15.5337H88.0654C88.0962 15.5324 88.1265 15.5421 88.1502 15.561C88.174 15.5799 88.1895 15.6066 88.1937 15.6359L88.489 17.1607H88.5318C88.8419 16.5978 89.31 16.1286 89.8838 15.8058C90.4575 15.4831 91.114 15.3194 91.7797 15.3333C91.7971 15.3333 91.8143 15.3366 91.8304 15.343C91.8465 15.3494 91.8612 15.3587 91.8735 15.3705C91.8858 15.3822 91.8956 15.3962 91.9022 15.4116C91.9089 15.4269 91.9123 15.4434 91.9123 15.4601V18.1909C91.9123 18.2245 91.8984 18.2568 91.8735 18.2805C91.8486 18.3043 91.8149 18.3177 91.7797 18.3177H91.0693C89.1565 18.3177 88.5018 19.0494 88.5018 19.9529V25.4432C88.5008 25.4759 88.4871 25.5069 88.4633 25.5304C88.4396 25.5538 88.4075 25.5679 88.3735 25.57H85.5834C85.5484 25.5735 85.5133 25.564 85.4854 25.5435C85.4575 25.5229 85.439 25.4929 85.4337 25.4596Z" fill="#B7B4B4"/>
<path d="M39.2529 20.5619C39.2529 17.365 40.5366 15.3373 44.2595 15.3373C47.9824 15.3373 49.2876 17.3813 49.2876 20.5619C49.2876 23.7424 47.9824 25.7865 44.2595 25.7865C40.5366 25.7865 39.2529 23.7792 39.2529 20.5619ZM42.5393 20.5619C42.5393 22.2912 42.8046 23.35 44.251 23.35C45.6973 23.35 45.9926 22.2912 45.9926 20.5619C45.9926 18.8326 45.723 17.7901 44.251 17.7901C42.7789 17.7901 42.5393 18.8326 42.5393 20.5619Z" fill="#B7B4B4"/>
<path d="M23.206 19.5644C23.3514 16.8295 22.3501 12.3571 19.9709 8.69823C19.9067 8.6042 19.7997 8.64099 19.8211 8.73911C19.9795 9.29509 20.018 10.3049 19.0937 10.2435C17.4505 10.1372 19.1493 6.77681 15.542 4.44659C15.5351 4.43953 15.5269 4.43389 15.5177 4.43004C15.5085 4.42618 15.4985 4.42419 15.4885 4.42419C15.4784 4.42419 15.4685 4.42618 15.4593 4.43004C15.4501 4.43389 15.4418 4.43953 15.435 4.44659C15.4246 4.45947 15.4189 4.47528 15.4189 4.49156C15.4189 4.50783 15.4246 4.52365 15.435 4.53653C15.6832 4.98622 15.8287 6.38844 15.2595 6.86675C14.8017 7.25103 13.9758 7.14883 13.1499 5.8856C12.5992 5.01522 12.3138 4.01522 12.3259 2.99826C12.338 1.98129 12.6471 0.987749 13.2184 0.129542C13.2868 0.0232511 13.1927 -0.01763 13.1157 0.00689869C8.15182 1.57265 7.15906 7.16518 6.1021 9.20106C5.92666 9.54446 5.7726 9.72025 5.46878 9.7039C4.56588 9.64667 5.21631 7.80293 5.52869 7.16109C5.53286 7.152 5.53505 7.14219 5.53514 7.13225C5.53523 7.12232 5.53322 7.11248 5.52922 7.10331C5.52522 7.09414 5.51932 7.08584 5.51188 7.07891C5.50443 7.07198 5.4956 7.06656 5.4859 7.06298C5.47389 7.05525 5.45973 7.05112 5.44525 7.05112C5.43076 7.05112 5.41661 7.05525 5.4046 7.06298C2.50397 10.1091 0.650542 13.9315 0.0941418 18.015C0.0941418 17.921 0.0513501 18.3503 0.025675 18.665C0.025506 18.7894 0.0169299 18.9137 0 19.0371L0 19.4827C0.0274832 22.393 1.25041 25.1765 3.40536 27.2337C5.56031 29.291 8.47485 30.4573 11.5212 30.4814C14.5675 30.5055 17.5019 29.3855 19.6923 27.3627C21.8826 25.3399 23.1537 22.5761 23.2316 19.6666C23.2135 19.6354 23.2046 19.6001 23.206 19.5644ZM11.5538 24.7195C10.4872 24.7146 9.44607 24.4074 8.56242 23.8367C7.67877 23.266 6.99232 22.4575 6.59005 21.5138C6.18778 20.57 6.08779 19.5335 6.30275 18.5354C6.51772 17.5373 7.03796 16.6226 7.79756 15.9072C8.55716 15.1919 9.52194 14.708 10.5696 14.517C11.6174 14.326 12.7008 14.4363 13.6828 14.8341C14.6648 15.2319 15.5011 15.8992 16.0858 16.7515C16.6704 17.6038 16.9771 18.6027 16.9669 19.6217C16.9534 20.9825 16.3762 22.2827 15.3618 23.2381C14.3474 24.1934 12.9782 24.7261 11.5538 24.7195Z" fill="#B7B4B4"/>
</svg>
