<svg width="71" height="22" viewBox="0 0 71 22" fill="none" xmlns="http://www.w3.org/2000/svg">
<path fill-rule="evenodd" clip-rule="evenodd" d="M18.3579 21.3781H12.2998L7.75702 4.82087C7.54139 4.05924 7.08357 3.38591 6.41012 3.06856C4.72946 2.27106 2.87749 1.63636 0.857147 1.31625V0.678801H10.6162C11.9631 0.678801 12.9733 1.63636 13.1416 2.74846L15.4987 14.6918L21.5538 0.678801H27.4435L18.3579 21.3781ZM30.8107 21.3781H25.0894L29.8006 0.678801H35.5219L30.8107 21.3781ZM42.9239 6.41314C43.0923 5.29829 44.1024 4.66084 45.281 4.66084C47.1329 4.50078 49.1503 4.82089 50.8339 5.61564L51.8441 1.15898C50.1605 0.521523 48.3085 0.201416 46.6279 0.201416C41.0749 0.201416 37.0342 3.06858 37.0342 7.04784C37.0342 10.0751 39.8963 11.6646 41.9167 12.6221C44.1024 13.5769 44.9442 14.2144 44.7759 15.1692C44.7759 16.6014 43.0923 17.2388 41.4116 17.2388C39.3913 17.2388 37.3709 16.7614 35.5219 15.9639L34.5117 20.4233C36.5321 21.2181 38.7178 21.5382 40.7382 21.5382C46.9646 21.6955 50.8339 18.8311 50.8339 14.5317C50.8339 9.11749 42.9239 8.80015 42.9239 6.41314V6.41314ZM70.8572 21.3781L66.3143 0.678801H61.4348C60.4246 0.678801 59.4145 1.31625 59.0777 2.27106L50.6656 21.3781H56.5553L57.7309 18.3537H64.9674L65.6409 21.3781H70.8572ZM62.2766 6.2531L63.9573 14.0543H59.2461L62.2766 6.2531Z" fill="#B7B4B4"/>
</svg>
