<svg xmlns="http://www.w3.org/2000/svg" xmlns:xlink="http://www.w3.org/1999/xlink" width="1080" zoomAndPan="magnify" viewBox="0 0 810 1439.999935" height="1920" preserveAspectRatio="xMidYMid meet" version="1.0"><defs><clipPath id="2bb2452c89"><path d="M 243 616.320312 L 458 616.320312 L 458 800 L 243 800 Z M 243 616.320312 " clip-rule="nonzero"/></clipPath></defs><rect x="-81" width="972" fill="#ffffff" y="-143.999994" height="1727.999922" fill-opacity="1"/><rect x="-81" width="972" fill="#ffffff" y="-143.999994" height="1727.999922" fill-opacity="1"/><rect x="-81" width="972" fill="#a2a2a2" y="-143.999994" height="1727.999922" fill-opacity="1"/><g clip-path="url(#2bb2452c89)"><path fill="#ffffff" d="M 374.519531 750.039062 L 374.519531 691.601562 C 374.519531 676.496094 386.238281 664.246094 400.695312 664.246094 L 457.960938 664.246094 L 457.960938 650.316406 C 457.960938 631.632812 443.453125 616.476562 425.574219 616.476562 L 275.386719 616.476562 C 257.503906 616.476562 243 631.632812 243 650.320312 L 243 722.625 C 243 741.308594 257.503906 756.46875 275.386719 756.46875 L 300.167969 756.46875 L 300.167969 796.417969 C 300.167969 798.625 303.203125 800.179688 304.777344 798.328125 C 316.585938 784.375 328.386719 770.421875 340.199219 756.46875 L 375.273438 756.46875 C 374.792969 754.398438 374.519531 752.257812 374.519531 750.039062 Z M 374.519531 750.039062 " fill-opacity="1" fill-rule="nonzero"/></g><path fill="#ffffff" d="M 389.375 701.238281 L 389.375 766.472656 C 389.375 780.089844 399.949219 791.140625 412.992188 791.140625 L 475.234375 791.140625 C 483.84375 801.3125 492.449219 811.484375 501.054688 821.65625 C 502.203125 823.011719 504.414062 821.875 504.414062 820.269531 L 504.414062 791.140625 L 543.386719 791.140625 C 556.429688 791.140625 567 780.089844 567 766.472656 L 567 701.238281 C 567 687.613281 556.429688 676.5625 543.386719 676.5625 L 412.992188 676.5625 C 399.949219 676.5625 389.375 687.609375 389.375 701.238281 Z M 389.375 701.238281 " fill-opacity="1" fill-rule="nonzero"/></svg>