<svg xmlns="http://www.w3.org/2000/svg" xmlns:xlink="http://www.w3.org/1999/xlink" width="1920" zoomAndPan="magnify" viewBox="0 0 1440 809.999993" height="1080" preserveAspectRatio="xMidYMid meet" version="1.0"><defs><clipPath id="e58eb91928"><path d="M 559.179688 243 L 880.929688 243 L 880.929688 567 L 559.179688 567 Z M 559.179688 243 " clip-rule="nonzero"/></clipPath></defs><rect x="-144" width="1728" fill="#ffffff" y="-80.999999" height="971.999992" fill-opacity="1"/><rect x="-144" width="1728" fill="#ffffff" y="-80.999999" height="971.999992" fill-opacity="1"/><rect x="-144" width="1728" fill="#a2a2a2" y="-80.999999" height="971.999992" fill-opacity="1"/><g clip-path="url(#e58eb91928)"><path fill="#ffffff" d="M 651.777344 243.128906 L 788.433594 243.128906 C 813.863281 243.128906 837 253.5625 853.785156 270.316406 C 870.597656 287.09375 881.035156 310.25 881.035156 335.695312 L 881.035156 474.277344 C 881.035156 499.671875 870.597656 522.800781 853.839844 539.578125 L 853.785156 539.632812 C 836.972656 556.414062 813.835938 566.816406 788.460938 566.816406 L 651.777344 566.816406 C 626.320312 566.816406 603.160156 556.386719 586.371094 539.632812 L 585.742188 538.921875 C 569.351562 522.222656 559.179688 499.355469 559.179688 474.253906 L 559.179688 335.695312 C 559.179688 310.222656 569.585938 287.09375 586.371094 270.316406 C 603.160156 253.535156 626.296875 243.128906 651.777344 243.128906 Z M 800.320312 324.84375 L 800.503906 325.132812 L 857.421875 325.132812 C 855.128906 310.167969 847.988281 296.734375 837.710938 286.4375 C 825.0625 273.792969 807.617188 265.941406 788.433594 265.941406 L 765.0625 265.941406 Z M 773.996094 325.132812 L 738.550781 265.941406 L 660.816406 265.941406 L 696.679688 325.132812 Z M 670.144531 325.132812 L 635.464844 267.863281 C 622.789062 270.921875 611.433594 277.480469 602.5 286.4375 C 592.222656 296.710938 585.109375 310.167969 582.789062 325.132812 Z M 858.214844 347.945312 L 582 347.945312 L 582 474.277344 C 582 493.164062 589.613281 510.367188 601.921875 522.957031 L 602.5 523.511719 C 615.148438 536.15625 632.621094 544.03125 651.777344 544.03125 L 788.433594 544.03125 C 807.617188 544.03125 825.0625 536.183594 837.6875 523.5625 L 837.738281 523.511719 C 850.359375 510.894531 858.214844 493.457031 858.214844 474.277344 Z M 693.4375 387.878906 L 764.140625 433.84375 C 765.273438 434.582031 766.300781 435.53125 767.117188 436.6875 C 770.332031 441.351562 769.144531 447.753906 764.480469 450.964844 L 694.070312 492.507812 C 692.304688 493.957031 690.039062 494.824219 687.535156 494.824219 C 681.84375 494.824219 677.230469 490.214844 677.230469 484.527344 L 677.230469 396.308594 L 677.285156 396.308594 C 677.285156 394.277344 677.890625 392.222656 679.128906 390.433594 C 682.398438 385.769531 688.800781 384.636719 693.4375 387.878906 Z M 693.4375 387.878906 " fill-opacity="1" fill-rule="nonzero"/></g></svg>